<?xml version="1.0" encoding="UTF-8" standalone="no"?>
<svg
   width="761"
   height="500"
   viewBox="0 0 761 500"
   fill="none"
   version="1.1"
   id="svg25"
   sodipodi:docname="automation workflow.svg"
   inkscape:version="1.4.3 (0d15f75042, 2025-12-25)"
   xmlns:inkscape="http://www.inkscape.org/namespaces/inkscape"
   xmlns:sodipodi="http://sodipodi.sourceforge.net/DTD/sodipodi-0.dtd"
   xmlns="http://www.w3.org/2000/svg"
   xmlns:svg="http://www.w3.org/2000/svg">
  <defs
     id="defs25" />
  <sodipodi:namedview
     id="namedview25"
     pagecolor="#ffffff"
     bordercolor="#000000"
     borderopacity="0.25"
     inkscape:showpageshadow="2"
     inkscape:pageopacity="0.0"
     inkscape:pagecheckerboard="0"
     inkscape:deskcolor="#d1d1d1"
     inkscape:zoom="1.8360618"
     inkscape:cx="430.26875"
     inkscape:cy="254.07642"
     inkscape:window-width="1920"
     inkscape:window-height="1080"
     inkscape:window-x="0"
     inkscape:window-y="0"
     inkscape:window-maximized="1"
     inkscape:current-layer="svg25" />
  <path
     d="m 237.14054,260.87204 h 2.18586 v -3.77642 h -2.15209 c -0.16974,-0.5858 -0.40703,-1.15617 -0.7292,-1.69309 l 1.52508,-1.44863 -2.7791,-2.6863 -1.52509,1.44864 c -0.55858,-0.30877 -1.15182,-0.55321 -1.76151,-0.71617 v -2.03445 h -3.98202 l 0.0165,2.01815 c -0.60969,0.16296 -1.20293,0.39111 -1.76238,0.68444 l -1.47399,-1.41691 -2.81288,2.6537 1.47399,1.41605 c -0.15242,0.26074 -0.30484,0.53692 -0.42349,0.81396 -0.11865,0.27703 -0.21997,0.5695 -0.30485,0.86283 l -2.13477,-0.0163 v 3.77641 l 2.11745,0.0163 c 0.16975,0.5858 0.40704,1.15616 0.72921,1.69309 l -1.55886,1.46493 2.77909,2.68629 1.55886,-1.46579 c 0.5586,0.30963 1.15184,0.55407 1.76153,0.71703 v 2.13223 h 3.94824 v -2.1168 c 0.62701,-0.1621 1.22024,-0.39024 1.7797,-0.69987 l 1.55886,1.48124 2.81288,-2.65285 -1.55886,-1.49753 c 0.28752,-0.48889 0.54214,-1.05839 0.71188,-1.6442 z m -7.25304,3.12544 c -2.88043,0 -5.2014,-2.2463 -5.2014,-4.99778 0,-2.76692 2.33829,-4.99692 5.2014,-4.99692 2.88043,0 5.20227,2.24629 5.20227,4.99692 0.0173,2.76777 -2.32184,4.99778 -5.20227,4.99778 z"
     fill="#0072ce"
     id="path1"
     style="stroke-width:0.861853;stroke:#1e88e5;stroke-opacity:1;fill:#1e88e5;fill-opacity:1" />
  <path
     d="m 258.66061,262.93909 c -1.45753,0 -2.81287,0.74876 -3.54208,1.97011 h -6.77758 v -11.81815 h 6.77758 c 1.13538,1.88778 3.64341,2.52333 5.59198,1.44864 1.9659,-1.09098 2.62668,-3.49938 1.50777,-5.37173 -1.13451,-1.88863 -3.64254,-2.52333 -5.59111,-1.44864 -0.62702,0.34137 -1.13538,0.84654 -1.50864,1.44864 h -6.77758 v -7.89506 h -8.20134 v -5.42062 h 4.64281 c 1.13537,1.88864 3.6434,2.52333 5.59198,1.44864 1.96503,-1.09013 2.62668,-3.49938 1.50776,-5.37173 -1.13537,-1.88778 -3.64254,-2.52333 -5.59198,-1.44864 -0.627,0.34222 -1.13537,0.84654 -1.50776,1.44864 h -8.72616 v 9.34371 h -12.31933 v -9.34371 h -8.7608 c -1.13537,-1.88778 -3.64254,-2.52333 -5.59111,-1.44864 -1.9659,1.09098 -2.62668,3.49938 -1.50863,5.37173 1.13537,1.88864 3.64341,2.52333 5.59198,1.44864 0.627,-0.34135 1.13537,-0.84654 1.50776,-1.44864 h 4.64281 v 5.42062 h -8.18402 v 7.87877 h -6.77758 c -1.13537,-1.88864 -3.6434,-2.52333 -5.59198,-1.44865 -1.94857,1.07384 -2.62668,3.49939 -1.50777,5.37173 1.11806,1.87149 3.64254,2.52333 5.59112,1.44865 0.62701,-0.34222 1.13537,-0.84654 1.50863,-1.44865 h 6.77758 v 11.81816 h -6.77758 c -1.13537,-1.88864 -3.6434,-2.52334 -5.59198,-1.44865 -1.9659,1.09013 -2.62668,3.49939 -1.50777,5.37173 1.11806,1.87149 3.64254,2.52248 5.59112,1.44865 0.62701,-0.34223 1.13537,-0.84655 1.50863,-1.44865 h 6.77758 v 7.87791 h 8.18402 v 5.45322 h -4.64281 c -1.13537,-1.88779 -3.64254,-2.52248 -5.59111,-1.44865 -1.9659,1.09099 -2.62668,3.50025 -1.50863,5.37173 1.13537,1.88864 3.64341,2.52333 5.59198,1.4495 0.627,-0.34221 1.13537,-0.84654 1.50776,-1.4495 h 8.74348 v -3.93852 -5.45322 h 12.31933 v 9.39174 h 8.72616 c 1.13536,1.88864 3.6434,2.52333 5.59198,1.4495 1.9659,-1.09098 2.62668,-3.50024 1.50863,-5.37258 -1.13537,-1.88779 -3.6434,-2.52248 -5.59199,-1.44865 -0.627,0.34222 -1.13536,0.84655 -1.50862,1.44865 h -4.64281 v -5.45322 h 8.20134 v -7.87791 h 6.77844 c 1.13538,1.88779 3.64254,2.52248 5.59199,1.44865 1.96503,-1.09099 2.62581,-3.50024 1.50776,-5.37173 -0.72833,-1.20506 -2.08454,-1.95382 -3.54121,-1.95382 z m -14.42033,9.84888 h -28.68737 v -27.57569 h 28.68737 z"
     fill="#0072ce"
     id="path2"
     style="stroke-width:0.861853;stroke:#1e88e5;stroke-opacity:1;fill:#1e88e5;fill-opacity:1" />
  <path
     d="m 273.26627,251.74105 h 30.82214 c 5.98949,0 10.84447,-4.80823 10.84447,-10.74004 v -42.94383 c 0,-5.9318 4.85499,-10.74003 10.84449,-10.74003 h 22.78101"
     stroke="#0072ce"
     stroke-width="3.96196"
     stroke-dasharray="6.01, 6.01"
     id="path3"
     style="stroke:#1e88e5;stroke-opacity:1" />
  <path
     d="m 377.97149,187.31715 h 30.81002"
     stroke="#0072ce"
     stroke-width="3.96196"
     stroke-dasharray="6.01, 6.01"
     id="path4"
     style="stroke:#1e88e5;stroke-opacity:1" />
  <path
     d="M 68.198473,259.01599 H 99.008144"
     stroke="#d7d7d7"
     stroke-width="3.96196"
     stroke-dasharray="6.01, 6.01"
     id="path5" />
  <path
     d="m 153.17597,259.01599 h 33.33276"
     stroke="#d7d7d7"
     stroke-width="3.96196"
     stroke-dasharray="6.25, 6.25"
     id="path6" />
  <path
     d="m 431.63614,171.30489 v -40.55001 c 0,-5.93181 4.85498,-10.74064 10.84447,-10.74064 h 44.25866"
     stroke="#0072ce"
     stroke-width="3.96196"
     stroke-dasharray="6.01, 6.01"
     id="path7"
     style="stroke:#1e88e5;stroke-opacity:1" />
  <path
     d="M 455.38365,188.14997 H 562.86711"
     stroke="#0072ce"
     stroke-width="3.96196"
     stroke-dasharray="6.01, 6.01"
     id="path8"
     style="stroke:#1e88e5;stroke-opacity:1" />
  <path
     d="m 531.51841,119.87778 h 94.94242 c 5.98863,0 10.84447,-4.80856 10.84447,-10.74028 V 81.076103 c 0,-5.931637 4.85499,-10.740204 10.84448,-10.740204 h 42.53958"
     stroke="#0072ce"
     stroke-width="3.96196"
     stroke-dasharray="6.01, 6.01"
     id="path9"
     style="stroke:#1e88e5;stroke-opacity:1" />
  <path
     d="m 609.37658,187.68253 h 41.80605 c 5.98949,0 10.84448,-4.80822 10.84448,-10.74003 v -8.81194 c 0,-5.9318 4.85584,-10.74088 10.84534,-10.74088 h 18.73924"
     stroke="#0072ce"
     stroke-width="3.96196"
     stroke-dasharray="6.01, 6.01"
     id="path10"
     style="stroke:#1e88e5;stroke-opacity:1" />
  <path
     d="m 609.37658,187.68339 h 41.80605 c 5.98949,0 10.84448,4.80822 10.84448,10.74003 v 8.81194 c 0,5.9318 4.85584,10.74089 10.84534,10.74089 h 18.73924"
     stroke="#0072ce"
     stroke-width="3.96196"
     stroke-dasharray="6.01, 6.01"
     id="path11"
     style="stroke:#1e88e5;stroke-opacity:1" />
  <path
     d="m 691.45753,433.27519 h -36.30327 c -5.98948,0 -10.84447,-4.80909 -10.84447,-10.74004 V 393.8153 c 0,-5.9318 -4.85586,-10.74002 -10.84448,-10.74002 h -72.17698"
     stroke="#0072ce"
     stroke-width="3.96196"
     stroke-dasharray="6.01, 6.01"
     id="path12"
     style="stroke:#1e88e5;stroke-opacity:1" />
  <path
     d="M 531.87349,383.07528 H 501.06434"
     stroke="#0072ce"
     stroke-width="3.96196"
     stroke-dasharray="6.01, 6.01"
     id="path13"
     style="stroke:#1e88e5;stroke-opacity:1" />
  <path
     d="m 478.78474,367.00125 v -13.3234 c 0,-5.9318 -4.85497,-10.74089 -10.84447,-10.74089 h -44.25952"
     stroke="#0072ce"
     stroke-width="3.96196"
     stroke-dasharray="6.01, 6.01"
     id="path14"
     style="stroke:#1e88e5;stroke-opacity:1" />
  <path
     d="m 273.26627,267.14606 h 31.73408 c 5.98948,0 10.84447,4.80823 10.84447,10.74004 v 54.31083 c 0,5.9318 4.85585,10.74003 10.84534,10.74003 h 49.89221"
     stroke="#0072ce"
     stroke-width="3.96196"
     stroke-dasharray="6.01, 6.01"
     id="path15"
     style="stroke:#1e88e5;stroke-opacity:1" />
  <path
     d="m 546.5874,367.19938 v -62.23163 c 0,-5.9318 4.85499,-10.74003 10.84447,-10.74003 h 134.02566"
     stroke="#0072ce"
     stroke-width="3.96196"
     stroke-dasharray="6.01, 6.01"
     id="path16"
     style="stroke:#1e88e5;stroke-opacity:1" />
  <ellipse
     cx="363.2645"
     cy="187.31714"
     stroke="#0072ce"
     stroke-width="3.96196"
     id="circle16"
     rx="14.707505"
     ry="14.565855"
     style="stroke:#1e88e5;stroke-opacity:1" />
  <ellipse
     cx="49.262127"
     cy="259.01602"
     stroke="#d7d7d7"
     stroke-width="3.96196"
     id="circle17"
     rx="14.707505"
     ry="14.565855" />
  <rect
     x="408.78152"
     y="171.30489"
     width="45.709091"
     height="32.024368"
     rx="5.6392393"
     stroke="#ffffff"
     stroke-width="3.96196"
     id="rect17"
     style="stroke:#fa2929;stroke-opacity:1" />
  <rect
     x="103.23734"
     y="243.00372"
     width="45.709091"
     height="32.024368"
     rx="5.6392393"
     stroke="#d7d7d7"
     stroke-width="3.96196"
     id="rect18" />
  <rect
     x="486.16418"
     y="103.71723"
     width="45.709091"
     height="32.024368"
     rx="5.6392393"
     stroke="#0072ce"
     stroke-width="3.96196"
     id="rect19"
     style="stroke:#1e88e5;stroke-opacity:1" />
  <rect
     x="562.86792"
     y="170.80484"
     width="45.709091"
     height="32.024368"
     rx="5.6392393"
     stroke="#ffffff"
     stroke-width="3.96196"
     id="rect20"
     style="stroke:#fa2929;stroke-opacity:1" />
  <rect
     width="45.709091"
     height="32.024368"
     rx="5.6392393"
     transform="scale(-1,1)"
     stroke="#ffffff"
     stroke-width="3.96196"
     id="rect21"
     x="-501.06433"
     y="367.06299"
     style="fill:none;fill-opacity:1;stroke:#fa2929;stroke-opacity:1" />
  <rect
     width="45.709091"
     height="32.024368"
     rx="5.6392393"
     transform="scale(-1,1)"
     stroke="#0072ce"
     stroke-width="3.96196"
     id="rect22"
     x="-423.68161"
     y="326.92468"
     style="stroke:#1e88e5;stroke-opacity:1" />
  <rect
     x="645.83038"
     y="-123.54626"
     width="22.107054"
     height="22.107054"
     rx="0.63861978"
     transform="matrix(0.71052005,0.70367696,-0.71052005,0.70367696,0,0)"
     stroke="#0072ce"
     stroke-width="3.96201"
     id="rect23"
     style="stroke:#1e88e5;stroke-opacity:1" />
  <path
     d="M 363.2645,172.3607 V 98.353293 c 0,-5.931628 4.85499,-10.740202 10.84447,-10.740202 h 36.94674 c 5.98949,0 10.84448,-4.808564 10.84448,-10.740281 V 35.07332"
     stroke="#0072ce"
     stroke-width="3.96196"
     stroke-dasharray="6.01, 6.01"
     id="path23"
     style="stroke:#1e88e5;stroke-opacity:1" />
  <path
     d="m 400.88327,360.41417 v 68.31953 c 0,5.93181 4.85499,10.74089 10.84448,10.74089 h 186.98536 c 5.98949,0 10.84447,4.80822 10.84447,10.74003 v 16.30646"
     stroke="#0072ce"
     stroke-width="3.96196"
     stroke-dasharray="6.01, 6.01"
     id="path24"
     style="stroke:#1e88e5;stroke-opacity:1" />
  <path
     d="m 431.63614,206.03116 v 42.21221 c 0,5.93181 4.85498,10.74003 10.84447,10.74003 h 132.0182 c 5.98948,0 10.84447,4.80908 10.84447,10.74003 v 13.75054 c 0,5.93095 4.85499,10.74003 10.84447,10.74003 h 33.5718"
     stroke="#0072ce"
     stroke-width="3.96196"
     stroke-dasharray="6.01, 6.01"
     id="path25"
     style="stroke:#1e88e5;stroke-opacity:1" />
  <ellipse
     cx="422.15567"
     cy="21.28455"
     stroke="#d7d7d7"
     stroke-width="3.96196"
     id="circle17-6"
     rx="14.707505"
     ry="14.565855" />
  <ellipse
     cx="704.83813"
     cy="70.264717"
     stroke="#d7d7d7"
     stroke-width="3.96196"
     id="circle17-5"
     rx="14.707505"
     ry="14.565855" />
  <ellipse
     cx="706.84595"
     cy="157.41205"
     stroke="#d7d7d7"
     stroke-width="3.96196"
     id="circle17-56"
     rx="14.707505"
     ry="14.565855" />
  <ellipse
     cx="706.41119"
     cy="218.09698"
     stroke="#d7d7d7"
     stroke-width="3.96196"
     id="circle17-9"
     rx="14.707505"
     ry="14.565855" />
  <ellipse
     cx="703.9248"
     cy="294.42542"
     stroke="#d7d7d7"
     stroke-width="3.96196"
     id="circle17-2"
     rx="14.707505"
     ry="14.565855" />
  <ellipse
     cx="708.37097"
     cy="433.39725"
     stroke="#d7d7d7"
     stroke-width="3.96196"
     id="circle17-0"
     rx="14.707505"
     ry="14.565855" />
  <ellipse
     cx="609.67926"
     cy="481.1626"
     stroke="#d7d7d7"
     stroke-width="3.96196"
     id="circle17-3"
     rx="14.707505"
     ry="14.565855" />
</svg>
