<?xml version="1.0" encoding="UTF-8" standalone="no"?>
<svg
   width="1024px"
   height="576px"
   viewBox="0 0 1024 576"
   version="1.1"
   id="svg10"
   sodipodi:docname="background.svg"
   inkscape:version="1.4.2 (ebf0e940d0, 2025-05-08)"
   xmlns:inkscape="http://www.inkscape.org/namespaces/inkscape"
   xmlns:sodipodi="http://sodipodi.sourceforge.net/DTD/sodipodi-0.dtd"
   xmlns:xlink="http://www.w3.org/1999/xlink"
   xmlns="http://www.w3.org/2000/svg"
   xmlns:svg="http://www.w3.org/2000/svg"
   xmlns:rdf="http://www.w3.org/1999/02/22-rdf-syntax-ns#"
   xmlns:cc="http://creativecommons.org/ns#"
   xmlns:dc="http://purl.org/dc/elements/1.1/">
  <sodipodi:namedview
     id="namedview10"
     pagecolor="#ffffff"
     bordercolor="#000000"
     borderopacity="0.25"
     inkscape:showpageshadow="2"
     inkscape:pageopacity="0.0"
     inkscape:pagecheckerboard="0"
     inkscape:deskcolor="#d1d1d1"
     inkscape:zoom="0.98700322"
     inkscape:cx="594.72957"
     inkscape:cy="386.52356"
     inkscape:window-width="1920"
     inkscape:window-height="1080"
     inkscape:window-x="0"
     inkscape:window-y="0"
     inkscape:window-maximized="1"
     inkscape:current-layer="svg10" />
  <metadata
     id="license">
    <rdf:RDF>
      <cc:Work
         rdf:about="">
        <dc:format>image/svg+xml</dc:format>
        <dc:title>black white hexagon purple glow gradient dark slate blue 1024x576 #000000 #ffffff #483d8b diagonal 45° 1px 29px</dc:title>
        <dc:creator>
          <cc:Agent>
            <dc:title>https://xmple.com</dc:title>
          </cc:Agent>
        </dc:creator>
        <dc:rights>
          <cc:Agent>
            <dc:title>Attribution-NonCommercial-NoDerivatives 4.0 International (CC BY-NC-ND 4.0)</dc:title>
          </cc:Agent>
        </dc:rights>
        <dc:publisher>
          <cc:Agent>
            <dc:title>https://xmple.com</dc:title>
          </cc:Agent>
        </dc:publisher>
        <dc:identifier>https://xmple.com/wallpaper/black-white-hexagon-purple-glow-gradient-1024x576-c4-000000-ffffff-483d8b-000000-l2-1-29-a-45-f-6-image/</dc:identifier>
        <dc:source>https://xmple.com/wallpaper/black-white-hexagon-purple-glow-gradient-1024x576-c4-000000-ffffff-483d8b-000000-l2-1-29-a-45-f-6-image/</dc:source>
        <dc:subject>
          <rdf:Bag>
            <rdf:li>black white hexagon purple glow gradient dark slate blue 1024x576 #000000 #ffffff #483d8b diagonal 45° 1px 29px</rdf:li>
          </rdf:Bag>
        </dc:subject>
        <dc:description>black white hexagon purple glow gradient dark slate blue 1024x576 #000000 #ffffff #483d8b diagonal 45° 1px 29px</dc:description>
        <cc:license
           rdf:resource="http://creativecommons.org/licenses/by-nc-nd/4.0/" />
      </cc:Work>
      <cc:License
         rdf:about="http://creativecommons.org/licenses/by-nc-nd/4.0/">
        <cc:permits
           rdf:resource="http://creativecommons.org/ns#Reproduction" />
        <cc:permits
           rdf:resource="http://creativecommons.org/ns#Distribution" />
        <cc:requires
           rdf:resource="http://creativecommons.org/ns#Notice" />
        <cc:requires
           rdf:resource="http://creativecommons.org/ns#Attribution" />
        <cc:prohibits
           rdf:resource="http://creativecommons.org/ns#CommercialUse" />
      </cc:License>
    </rdf:RDF>
  </metadata>
  <title
     id="svgtitle">black white hexagon purple glow gradient dark slate blue 1024x576 #000000 #ffffff #483d8b diagonal 45° 1px 29px</title>
  <desc
     id="desc1">black white hexagon purple glow gradient dark slate blue 1024x576 #000000 #ffffff #483d8b diagonal 45° 1px 29px</desc>
  <style
     type="text/css"
     id="style1"><![CDATA[.x{font:20px verdana;fill:#fff;stroke:#555;stroke-width:20px;opacity:0.35;}.o{stroke:none;opacity:0.01;}]]></style>
  <defs
     id="defs5">
    <radialGradient
       id="gr"
       fx="50%"
       fy="50%"
       r="70%"
       spreadMethod="pad">
      <stop
         offset="0%"
         stop-color="#ffffff"
         stop-opacity="1"
         id="stop1" />
      <stop
         offset="50%"
         stop-color="#483d8b"
         stop-opacity="1"
         id="stop2" />
      <stop
         offset="100%"
         stop-color="#000000"
         stop-opacity="1"
         id="stop3" />
    </radialGradient>
    <pattern
       id="p1"
       patternUnits="userSpaceOnUse"
       x="0"
       y="0"
       width="29"
       height="50.2294734204"
       patternTransform="translate(512,288) rotate(315 0 0)">
      <path
         stroke="#fff"
         stroke-width="1"
         fill="none"
         d="M0 0V8.3715789034 L14.5 16.7431578068 L29 8.3715789034V0M0 50.2294734204 V41.857894517L14.5 33.4863156136 L29 41.857894517V50.2294734204M14.5 16.7431578068v16.7431578068"
         id="path3" />
    </pattern>
    <mask
       id="msk"
       x="0"
       y="0"
       width="1024"
       height="576">
      <path
         fill="#000"
         d="M0 0H1024V576H0z"
         id="path4" />
      <path
         fill="url(#p1)"
         d="M0 0H1024V576H0z"
         id="path5" />
    </mask>
  </defs>
  <path
     fill="#000000"
     d="M0 0H1024V576H0z"
     id="path6" />
  <path
     mask="url(#msk)"
     fill="url(#gr)"
     d="M0 0H1024V576H0z"
     id="path7" />
  <path
     class="x o"
     d="M5 5h2v1H6v1h1v1H5zM4 3h4v1h1v5H8v1H4V9H3V4h1v5h4V4H4zm7 1h1v2h1V4h1v2h-1v1h1v2h-1V7h-1v2h-1V7h1V6h-1zm4 0h5v5h-1V5h-1v4h-1V5h-1v4h-1zm6 0h3l-1 1h-1v3h1V5l1-1v5h-2v2h-1zm4-2h1v6h1v1h-2zm3 2h3l-1 1h-1v1h1V5l1-1v3h-2v1h2v1h-3V4zm4 4h1v1h-1zm2-4h3v1h-2v3h2v1h-3zm4 0h3v5h-3l1-1h1V5h-1v3l-1 1zm4 0h5v5h-1V5h-1v4h-1V5h-1v4h-1z"
     id="path8" />
  <text
     x="4"
     y="570"
     class="x o"
     id="text8">xmple.com</text>
  <a
     xlink:href="https://xmple.com"
     id="a9">
    <text
       text-anchor="end"
       x="1014"
       y="22"
       class="x o"
       id="text9">xmple.com</text>
  </a>
</svg>
