<?xml version="1.0" encoding="UTF-8" standalone="no"?>
<!-- Uploaded to: SVG Repo, www.svgrepo.com, Generator: SVG Repo Mixer Tools -->

<svg
   fill="#000000"
   width="652.53271"
   height="652.53381"
   viewBox="0 0 208.81127 208.81162"
   id="Flat"
   version="1.1"
   xmlns="http://www.w3.org/2000/svg"
   xmlns:svg="http://www.w3.org/2000/svg">
  <defs
     id="defs1" />
  <path
     d="m 104.40517,52.405327 c -21.032005,0 -74.659718,23.403022 -82.707866,42.83372 -8.048132,19.430663 8.504182,48.395553 23.375997,63.267363 14.871816,14.87182 82.672929,47.83476 102.103589,39.78662 19.4307,-8.04814 9.22828,-72.85569 9.22828,-93.8877 -0.0325,-28.705343 -23.29466,-51.967516 -52,-52.000003 z m 0,96.000003 c -17.796315,0 -33.840418,-10.72032 -40.650389,-27.16168 -6.809958,-16.44132 -3.044568,-35.365593 9.539276,-47.949441 12.583848,-12.583844 31.508113,-16.349234 47.949433,-9.539276 16.44136,6.809971 27.16168,22.854074 27.16168,40.650397 -0.0274,24.28916 -19.71084,43.97257 -44,44 z m 103.606,-19.19434 -15.70459,-20.93652 c 0.0728,-2.56543 0.0195,-5.86182 -0.0225,-7.709 L 208.0043,79.605987 c 0.73839,-0.98457 0.98242,-2.25424 0.66162,-3.44238 -2.40719,-8.922014 -5.95535,-17.496197 -10.55664,-25.51025 -0.61333,-1.06782 -1.68426,-1.793668 -2.90332,-1.96778 l -25.88679,-3.69675 c -1.74854,-1.9087 -3.59033,-3.75049 -5.49854,-5.49854 l -3.6958,-25.87549 c -0.17382,-1.218378 -0.8989,-2.288884 -1.96582,-2.90234 -8.01128,-4.6064922 -16.58329,-8.1603902 -25.50384,-10.57373012 -1.18859,-0.321487 -2.45901,-0.07742 -3.44385,0.66162 L 108.29284,16.490777 c -2.58594,-0.11328 -5.19043,-0.11328 -7.77637,0 L 79.606325,0.80718688 c -0.98456,-0.738393 -2.25424,-0.982426 -3.44238,-0.66163 C 67.241522,2.5526808 58.666986,6.1010198 50.652715,10.702687 c -1.067571,0.613274 -1.79323,1.684023 -1.96729,2.90284 l -3.69625,25.88623 c -1.90869,1.74853 -3.75049,3.59033 -5.499,5.499 l -25.87555,3.69533 c -1.218311,0.174338 -2.288672,0.899498 -2.90234,1.96631 -4.606654,8.011401 -8.160562,16.583607 -10.57373999,25.50439 -0.321185,1.1886 -0.07714,2.45889 0.66163,3.44385 L 16.504765,100.53717 c -0.07276,2.56543 -0.01954,5.86181 0.02246,7.709 L 0.80700501,129.20562 c -0.738386,0.98457 -0.982415,2.25425 -0.66162,3.44239 2.40719099,8.92201 5.95535499,17.4962 10.55663999,25.51025 0.613326,1.06782 1.684265,1.79367 2.90332,1.96777 l 25.88672,3.69678 c 1.74854,1.90869 3.59033,3.75049 5.49854,5.49854 l 3.6958,25.87548 c 0.17381,1.21838 0.898889,2.2889 1.96582,2.90235 8.011306,4.60649 16.583329,8.16039 25.5039,10.57373 1.18859,0.32145 2.45899,0.0774 3.44385,-0.66162 l 20.918455,-15.69043 c 2.58594,0.11328 5.19043,0.11328 7.77636,0 l 20.91016,15.68359 c 0.98447,0.73861 2.25425,0.98266 3.44238,0.66162 8.92242,-2.40712 17.49696,-5.95546 25.51123,-10.55713 1.06757,-0.61327 1.79323,-1.68402 1.96729,-2.90283 l 3.69971,-25.90918 c 1.86523,-1.76269 4.1582,-4.13135 5.43506,-5.4668 l 25.936,-3.70459 c 1.21831,-0.17433 2.28867,-0.89949 2.90234,-1.9663 4.60666,-8.0114 8.16056,-16.58361 10.57373,-25.5044 0.3212,-1.18859 0.0772,-2.45888 -0.66159,-3.44385 z m -61.95218,3.47486 -7.51798,4.41984 c -0.89811,0.12827 2.05998,1.92777 1.20603,2.23409 -4.17977,1.49931 -0.896,-2.22992 -3.29053,-0.1098 -0.71031,0.6292 -6.97585,8.01748 -7.11003,8.95685 l 23.13881,43.93334 c -6.36351,3.49017 -9.91043,-5.21387 -16.87958,-3.18741 l -10.44038,-15.88197 c -0.75868,-0.56986 -6.8237,-13.15872 -7.77079,-13.10074 -3.25385,0.19726 -14.61926,24.50505 -17.873105,24.30779 -0.94704,-0.0575 -1.88366,0.2236 -2.64258,0.793 l -16.70411,-10.05999 c -6.967543,-2.03189 -2.40972,-1.94833 -8.770649,-5.44314 l -10.083633,-5.56247 c -0.133986,-0.93944 -6.546375,-2.41601 -7.256841,-3.04508 -2.440355,-2.16137 -7.414312,-1.08386 -9.575857,-3.52406 -0.628935,-0.71038 0.869046,-6.30224 -0.07022,-6.43632 l -6.404099,-10.24324 c -3.490122,-6.36337 11.132475,-7.72284 9.105962,-14.69182 L 23.761685,111.93368 c 0.544182,-0.7257 0.825521,-1.61483 0.79785,-2.52148 -0.002,-0.0669 -0.20019,-6.69825 -0.0059,-9.890633 0.05749,-0.94719 -0.223571,-1.88398 -0.793,-2.64307 l 15.374237,-9.32983 c 2.031933,-6.96767 23.300933,-2.70687 26.795701,-9.06799 L 87.596165,59.680033 c 0,0 -5.58441,2.273637 -4.95545,1.563216 2.16125,-2.440324 -2.40346,-0.798728 0.0368,-2.959997 0.7103,-0.629201 8.66113,-1.900581 8.79532,-2.839948 l -3.23625,1.426467 c 6.36353,-3.490169 -1.2698,1.269163 5.69937,-0.757289 l 4.82651,-0.586151 c 0.75947,0.568292 2.420915,-0.601246 3.367805,-0.657481 3.25385,-0.19727 2.02017,-0.922511 5.27401,-0.725241 0.94695,0.05666 4.63921,1.516254 5.3985,0.947578 l 9.62039,2.755012 c 6.96754,2.031885 -2.84367,-0.546653 3.51726,2.94816 l 8.5537,3.310119 c 0.13398,0.939433 0.30754,0.495188 1.01801,1.124247 2.44034,2.16138 2.5719,1.567534 4.73346,4.007728 0.62893,0.710376 3.95575,8.426424 5.33016,8.560514 l 2.15949,4.3478 c 3.49012,6.36337 -0.97911,-5.62159 1.0474,1.34739 l 1.16537,3.66759 c -0.54418,0.7257 4.72257,12.964843 4.75024,13.871493 0.002,0.0669 -0.34374,-1.823333 -0.53807,1.36906 -0.0575,0.94718 -1.73458,8.33861 -1.16515,9.0977 l -4.64064,16.94486 c -2.03195,6.96768 7.72644,-13.64945 4.23164,-7.28833 z"
     id="path1"
     style="fill:#cbcfd7;fill-opacity:1;stroke:none;stroke-opacity:1" />
</svg>
