<?xml version="1.0" encoding="UTF-8" standalone="no"?>
<svg
   width="1182"
   height="374"
   viewBox="0 0 1182 374"
   fill="none"
   version="1.1"
   id="svg156"
   sodipodi:docname="system_integration_background.svg"
   inkscape:version="1.4.3 (0d15f75042, 2025-12-25)"
   xmlns:inkscape="http://www.inkscape.org/namespaces/inkscape"
   xmlns:sodipodi="http://sodipodi.sourceforge.net/DTD/sodipodi-0.dtd"
   xmlns:xlink="http://www.w3.org/1999/xlink"
   xmlns="http://www.w3.org/2000/svg"
   xmlns:svg="http://www.w3.org/2000/svg">
  <sodipodi:namedview
     id="namedview156"
     pagecolor="#ffffff"
     bordercolor="#000000"
     borderopacity="0.25"
     inkscape:showpageshadow="2"
     inkscape:pageopacity="0.0"
     inkscape:pagecheckerboard="0"
     inkscape:deskcolor="#d1d1d1"
     inkscape:zoom="1.1821007"
     inkscape:cx="598.08781"
     inkscape:cy="144.23475"
     inkscape:window-width="1920"
     inkscape:window-height="1080"
     inkscape:window-x="0"
     inkscape:window-y="0"
     inkscape:window-maximized="1"
     inkscape:current-layer="svg156" />
  <path
     d="M600.122 298.539C537.627 298.539 486.965 248.098 486.965 185.875C486.965 123.653 537.627 73.2119 600.122 73.2119C662.618 73.2119 713.28 123.653 713.28 185.875C713.28 248.098 662.618 298.539 600.122 298.539ZM600.122 100.022C552.561 100.022 514.006 138.409 514.006 185.762C514.006 233.115 552.561 271.502 600.122 271.502C647.683 271.502 686.238 233.115 686.238 185.762C686.238 138.409 647.683 100.022 600.122 100.022Z"
     fill="url(#paint0_linear_1126_16159)"
     id="path1" />
  <path
     d="M720.836 139.361C724.717 149.363 727.382 159.963 728.647 170.99L728.66 170.755L764.45 180.601L763.83 191.609L763.627 195.209L763.007 206.216L726.81 211.944C724.844 221.42 721.835 230.516 717.905 239.105L718.747 237.821L744.797 264.162L738.733 273.387L736.751 276.405L730.686 285.63L696.015 272.4L696.459 271.724C691.985 276.693 687.126 281.313 681.934 285.538L692.93 319.711L683.342 325.222L680.206 327.024L670.618 332.536L646.466 306.049C638.303 309.169 629.739 311.488 620.874 312.912L613.006 349.031H587.24L579.372 312.912C567.685 311.035 556.521 307.6 546.101 302.827L519.593 327.01L510.552 320.646L507.595 318.564L498.554 312.2L512.196 280.242C505.921 274.45 500.225 268.045 495.201 261.126L459.221 269.067L454.587 259.055L453.073 255.781L448.439 245.768L476.729 224.564C474.492 217.507 472.85 210.186 471.859 202.662L471.772 205.049L435.793 195.921L436.191 184.905L436.321 181.302L436.719 170.286L472.62 163.868C474.123 155.128 476.512 146.685 479.689 138.641L479.061 139.641L452.485 113.823L458.363 104.48L460.286 101.424L466.163 92.0804L499.987 104.218C505.647 97.3361 512.007 91.0503 518.959 85.4655L518.233 85.8834L506.907 50.6786L516.495 45.1666L519.631 43.3653L529.219 37.8533L554.178 65.2243L553.612 65.5506C561.829 62.3982 570.453 60.0548 579.383 58.6229L587.961 22.7332L599.03 22.9543L602.651 23.0271L613.721 23.2482L620.679 58.596C629.075 59.9308 637.201 62.0693 644.974 64.9304L668.31 37.4137L678.093 42.5805L681.292 44.2686L691.075 49.4354L681.024 85.0232L680.095 84.5324C687.494 90.3356 694.241 96.9263 700.211 104.175L733.899 92.0858L739.776 101.43L741.699 104.485L747.576 113.829L721.001 139.647L720.83 139.374L720.836 139.361ZM676.343 109.876C666.436 100.011 654.909 92.2718 642.073 86.8677C628.799 81.2776 614.685 78.4434 600.122 78.4434C585.558 78.4434 571.447 81.2776 558.17 86.8677C545.337 92.2718 533.807 100.014 523.9 109.876C513.995 119.74 506.219 131.217 500.791 143.996C495.176 157.213 492.33 171.265 492.33 185.765C492.33 200.265 495.176 214.314 500.791 227.533C506.219 240.31 513.995 251.79 523.9 261.654C533.807 271.519 545.335 279.258 558.17 284.662C571.444 290.252 585.558 293.086 600.122 293.086C614.685 293.086 628.796 290.252 642.073 284.662C654.906 279.258 666.436 271.516 676.343 261.654C686.251 251.79 694.024 240.313 699.452 227.533C705.067 214.317 707.913 200.265 707.913 185.765C707.913 171.265 705.067 157.215 699.452 143.996C694.024 131.22 686.248 119.74 676.343 109.876Z"
     fill="url(#paint1_linear_1126_16159)"
     id="path2" />
  <path
     d="M644.729 141.456C669.369 165.988 669.369 205.762 644.729 230.294C620.089 254.827 580.141 254.827 555.501 230.294C530.861 205.762 530.861 165.988 555.501 141.456C580.141 116.923 620.089 116.923 644.729 141.456Z"
     fill="url(#paint2_linear_1126_16159)"
     id="path3" />
  <g
     style="mix-blend-mode:lighten;fill:#d40000"
     id="g4">
    <path
       d="M638.777 147.149C660.276 168.554 660.276 203.258 638.777 224.663C617.278 246.068 582.422 246.068 560.923 224.663C539.424 203.258 539.424 168.554 560.923 147.149C582.422 125.744 617.279 125.744 638.777 147.149Z"
       fill="#F9F9F9"
       id="path4"
       style="fill:#d40000" />
  </g>
  <path
     d="M600.002 175.619C594.356 175.619 589.765 180.232 589.765 185.904C589.765 191.576 594.356 196.189 600.002 196.189C605.648 196.189 610.239 191.576 610.239 185.904C610.239 180.232 605.648 175.619 600.002 175.619ZM600.002 191.046C597.182 191.046 594.883 188.737 594.883 185.904C594.883 183.07 597.182 180.761 600.002 180.761C602.822 180.761 605.121 183.07 605.121 185.904C605.121 188.737 602.822 191.046 600.002 191.046ZM631.738 173.603C632.265 171.608 631.978 169.53 630.944 167.756C629.91 165.977 628.252 164.706 626.266 164.182C624.29 163.657 622.222 163.945 620.446 164.979L617.16 166.902C614.411 164.393 611.191 162.526 607.675 161.415V157.62C607.675 153.367 604.23 149.906 599.997 149.906C595.764 149.906 592.319 153.367 592.319 157.62V161.415C588.802 162.526 585.583 164.398 582.834 166.907L579.553 164.984C577.782 163.945 575.714 163.662 573.728 164.187C571.747 164.711 570.083 165.982 569.049 167.756C568.016 169.535 567.734 171.613 568.251 173.603C568.768 175.593 570.037 177.269 571.808 178.308L575.115 180.247C574.634 182.227 574.398 184.094 574.398 185.909C574.398 187.724 574.634 189.586 575.115 191.566L571.808 193.504C570.037 194.543 568.773 196.214 568.251 198.21C567.729 200.205 568.016 202.283 569.049 204.057C570.083 205.836 571.742 207.106 573.728 207.631C575.714 208.15 577.782 207.872 579.548 206.828L582.829 204.905C585.578 207.42 588.802 209.287 592.314 210.397V214.193C592.314 218.445 595.759 221.906 599.992 221.906C604.225 221.906 607.67 218.445 607.67 214.193V210.397C611.186 209.287 614.406 207.42 617.155 204.905L620.436 206.828C622.217 207.867 624.285 208.15 626.261 207.631C628.247 207.106 629.905 205.836 630.939 204.057C631.973 202.277 632.26 200.2 631.733 198.21C631.21 196.214 629.951 194.548 628.18 193.509L624.874 191.571C625.355 189.596 625.59 187.729 625.59 185.914C625.59 184.099 625.355 182.232 624.874 180.252L628.18 178.319C629.956 177.28 631.216 175.608 631.733 173.613L631.738 173.603ZM626.788 172.297C626.614 172.96 626.194 173.515 625.605 173.86L620.594 176.796C619.565 177.403 619.084 178.642 619.443 179.789C620.149 182.047 620.477 183.991 620.477 185.899C620.477 187.806 620.149 189.75 619.443 192.003C619.084 193.149 619.555 194.389 620.594 194.996L625.605 197.937C626.194 198.282 626.614 198.837 626.788 199.5C626.962 200.164 626.87 200.858 626.522 201.449C626.179 202.041 625.621 202.468 624.961 202.637C624.31 202.817 623.619 202.725 623.021 202.37L618.045 199.454C617.032 198.852 615.706 199.038 614.892 199.917C612.077 202.93 608.499 205.003 604.547 205.908C603.38 206.175 602.556 207.214 602.556 208.412V214.172C602.556 215.591 601.41 216.743 599.997 216.743C598.584 216.743 597.438 215.591 597.438 214.172V208.412C597.438 207.214 596.613 206.17 595.446 205.908C591.49 205.003 587.912 202.93 585.102 199.917C584.605 199.382 583.924 199.104 583.233 199.104C582.793 199.104 582.348 199.218 581.943 199.454L576.973 202.37C576.39 202.714 575.694 202.812 575.033 202.637C574.373 202.462 573.82 202.041 573.472 201.444C573.129 200.853 573.032 200.159 573.206 199.5C573.38 198.837 573.8 198.277 574.388 197.932L579.399 194.99C580.433 194.384 580.909 193.144 580.551 191.998C579.845 189.74 579.517 187.796 579.517 185.888C579.517 183.98 579.845 182.042 580.551 179.779C580.909 178.632 580.433 177.393 579.399 176.791L574.388 173.855C573.8 173.51 573.375 172.95 573.206 172.286C573.032 171.623 573.124 170.934 573.472 170.337C573.815 169.746 574.373 169.319 575.033 169.149C575.688 168.969 576.385 169.067 576.973 169.412L581.943 172.328C582.972 172.929 584.283 172.744 585.102 171.87C587.912 168.856 591.495 166.784 595.446 165.879C596.613 165.611 597.438 164.573 597.438 163.374V157.615C597.438 156.196 598.584 155.044 599.997 155.044C601.41 155.044 602.556 156.196 602.556 157.615V163.374C602.556 164.573 603.38 165.617 604.547 165.879C608.499 166.784 612.082 168.856 614.892 171.87C615.706 172.744 617.032 172.934 618.045 172.328L623.021 169.412C623.604 169.072 624.28 168.969 624.961 169.149C625.621 169.324 626.174 169.746 626.522 170.337C626.865 170.934 626.962 171.623 626.788 172.286V172.297Z"
     fill="#008BE0"
     id="path5" />
  <path
     d="M599.999 175.617C594.353 175.617 589.762 180.23 589.762 185.902C589.762 191.574 594.353 196.187 599.999 196.187C605.645 196.187 610.236 191.574 610.236 185.902C610.236 180.23 605.645 175.617 599.999 175.617ZM599.999 191.045C597.179 191.045 594.88 188.736 594.88 185.902C594.88 183.069 597.179 180.76 599.999 180.76C602.819 180.76 605.118 183.069 605.118 185.902C605.118 188.736 602.819 191.045 599.999 191.045Z"
     fill="#132434"
     id="path6" />
  <path
     d="M662.059 373.469C732.631 354.328 786.608 295.007 801.209 223.918C818.357 141.268 781.34 55.7541 707.943 13.0633C699.167 7.95856 690.007 3.5603 680.56 0.00341797C717.184 18.6157 748.546 47.7962 768.68 83.4487C771.741 88.7639 774.501 94.3163 777.077 99.8579C788.209 124.419 794.349 151.2 794.934 178.128C794.95 179.431 795.026 182.378 795.01 183.632C794.964 185.679 794.89 188.923 794.844 190.97C794.793 192.213 794.592 195.185 794.525 196.463C794.484 197.043 794.403 198.642 794.362 199.211C794.081 201.945 793.826 204.69 793.528 207.422C792.832 212.697 791.635 220.334 790.438 225.498C776.094 292.933 726.412 348.684 662.059 373.466V373.469Z"
     fill="url(#paint3_linear_1126_16159)"
     id="path7" />
  <path
     d="M537.028 373.466C472.664 348.673 423.001 292.944 408.649 225.498C407.454 220.342 406.252 212.694 405.558 207.422C405.261 204.69 405.003 201.945 404.724 199.211C404.697 198.647 404.594 197.051 404.562 196.463C404.489 195.163 404.299 192.224 404.242 190.97C404.196 188.923 404.126 185.679 404.077 183.632C404.05 182.384 404.145 179.409 404.153 178.128C404.738 151.2 410.878 124.416 422.01 99.8579C424.583 94.319 427.348 88.7504 430.406 83.4488C450.541 47.7963 481.902 18.6185 518.526 0.00344849C509.076 3.56033 499.916 7.95856 491.141 13.0633C417.728 55.773 380.733 141.265 397.875 223.918C412.479 295.012 466.461 354.331 537.025 373.469L537.028 373.466Z"
     fill="url(#paint4_linear_1126_16159)"
     id="path8" />
  <path
     d="M411.668 117.242L371.412 118.269L372.393 118.62L330.192 85.0852L329.966 84.9062L329.699 84.91L274.993 85.6875L329.699 86.4668L329.204 86.2897L370.43 121.012L370.835 121.353L371.412 121.362L411.668 122.39V117.242Z"
     fill="#865773"
     id="path9" />
  <path
     d="M302.895 77.6146H293.66C292.759 73.3179 291.064 69.2275 288.66 65.5542L295.192 59.0214C295.469 58.7451 295.688 58.417 295.838 58.0559C295.987 57.6948 296.064 57.3077 296.064 56.9169C296.064 56.526 295.987 56.139 295.838 55.7779C295.688 55.4168 295.469 55.0887 295.192 54.8123L289.09 48.7091C288.532 48.1509 287.775 47.8374 286.986 47.8374C286.196 47.8374 285.439 48.1509 284.881 48.7091L278.348 55.2418C274.675 52.8382 270.584 51.1427 266.288 50.2427V41.0074C266.288 40.2181 265.974 39.4611 265.416 38.903C264.858 38.3448 264.101 38.0312 263.312 38.0312H254.681C253.891 38.0312 253.134 38.3448 252.576 38.903C252.018 39.4611 251.704 40.2181 251.704 41.0074V50.2427C247.408 51.143 243.317 52.8388 239.644 55.2427L233.111 48.71C232.553 48.1518 231.796 47.8383 231.007 47.8383C230.217 47.8383 229.46 48.1518 228.902 48.71L222.799 54.812C222.523 55.0884 222.303 55.4165 222.154 55.7776C222.004 56.1387 221.927 56.5257 221.927 56.9166C221.927 57.3074 222.004 57.6945 222.154 58.0556C222.303 58.4167 222.523 58.7448 222.799 59.0211L229.332 65.5539C226.928 69.2273 225.233 73.3179 224.333 77.6146H215.097C214.308 77.6146 213.551 77.9281 212.993 78.4863C212.435 79.0444 212.121 79.8014 212.121 80.5908V89.2217C212.121 90.0111 212.435 90.7681 212.993 91.3262C213.551 91.8843 214.308 92.1979 215.097 92.1979H224.333C225.233 96.4946 226.929 100.585 229.333 104.258L222.8 110.791C222.523 111.067 222.304 111.396 222.155 111.757C222.005 112.118 221.928 112.505 221.928 112.896C221.928 113.286 222.005 113.673 222.155 114.035C222.304 114.396 222.523 114.724 222.8 115L228.903 121.103C229.461 121.661 230.218 121.975 231.007 121.975C231.797 121.975 232.554 121.661 233.112 121.103L239.645 114.57C243.318 116.974 247.408 118.67 251.704 119.57V128.805C251.704 129.196 251.781 129.583 251.931 129.944C252.081 130.305 252.3 130.633 252.576 130.91C252.852 131.186 253.181 131.405 253.542 131.555C253.903 131.704 254.29 131.781 254.681 131.781H263.312C263.702 131.781 264.089 131.704 264.45 131.555C264.812 131.405 265.14 131.186 265.416 130.91C265.692 130.633 265.912 130.305 266.061 129.944C266.211 129.583 266.288 129.196 266.288 128.805V119.57C270.584 118.669 274.675 116.974 278.348 114.57L284.881 121.103C285.439 121.661 286.196 121.974 286.985 121.974C287.775 121.974 288.532 121.661 289.09 121.103L295.193 115C295.469 114.723 295.689 114.395 295.838 114.034C295.988 113.673 296.065 113.286 296.065 112.895C296.065 112.504 295.988 112.117 295.838 111.756C295.689 111.395 295.469 111.067 295.193 110.79L288.66 104.258C291.064 100.585 292.759 96.4943 293.66 92.1979H302.895C303.286 92.1979 303.673 92.1209 304.034 91.9714C304.395 91.8218 304.723 91.6026 304.999 91.3262C305.276 91.0498 305.495 90.7217 305.645 90.3607C305.794 89.9996 305.871 89.6126 305.871 89.2217V80.5908C305.871 80.1999 305.794 79.8129 305.645 79.4518C305.495 79.0907 305.276 78.7626 304.999 78.4863C304.723 78.2099 304.395 77.9907 304.034 77.8411C303.673 77.6916 303.286 77.6146 302.895 77.6146Z"
     fill="#1E3143"
     id="path10" />
  <path
     d="M263.306 132.826H254.675C253.61 132.824 252.589 132.401 251.836 131.647C251.082 130.894 250.659 129.873 250.658 128.808V120.409C246.811 119.511 243.138 117.988 239.784 115.901L233.842 121.842C233.088 122.595 232.066 123.017 231.001 123.017C229.936 123.017 228.914 122.595 228.16 121.842L222.057 115.74C221.304 114.986 220.881 113.964 220.881 112.899C220.881 111.833 221.304 110.811 222.057 110.058L227.999 104.116C225.912 100.762 224.389 97.0888 223.491 93.2422H215.092C214.027 93.241 213.006 92.8173 212.252 92.0641C211.499 91.3108 211.075 90.2896 211.074 89.2243V80.5934C211.075 79.5281 211.499 78.5069 212.252 77.7536C213.006 77.0004 214.027 76.5767 215.092 76.5755H223.491C224.389 72.7289 225.912 69.0556 227.999 65.7022L222.057 59.76C221.305 59.006 220.882 57.9843 220.882 56.919C220.882 55.8538 221.305 54.8321 222.057 54.0781L228.16 47.9751C228.914 47.2227 229.936 46.8001 231.001 46.8001C232.066 46.8001 233.088 47.2227 233.842 47.9751L239.784 53.9169C243.138 51.8295 246.811 50.3066 250.658 49.409V41.01C250.659 39.9448 251.082 38.9235 251.836 38.1703C252.589 37.4171 253.61 36.9934 254.675 36.9922H263.306C264.372 36.9934 265.393 37.4171 266.146 38.1703C266.899 38.9235 267.323 39.9448 267.324 41.01V49.409C271.171 50.3066 274.844 51.8295 278.198 53.917L284.14 47.9752C284.894 47.2228 285.916 46.8003 286.981 46.8003C288.046 46.8003 289.068 47.2228 289.822 47.9752L295.925 54.0782C296.677 54.8322 297.1 55.854 297.1 56.9192C297.1 57.9844 296.677 59.0062 295.925 59.7602L289.983 65.7022C292.07 69.0556 293.593 72.7289 294.491 76.5755H302.89C303.955 76.5767 304.976 77.0004 305.729 77.7536C306.483 78.5069 306.906 79.5281 306.908 80.5934V89.2243C306.906 90.2896 306.483 91.3108 305.729 92.0641C304.976 92.8173 303.955 93.241 302.89 93.2422H294.491C293.593 97.0888 292.07 100.762 289.983 104.116L295.925 110.058C296.678 110.811 297.101 111.833 297.101 112.899C297.101 113.964 296.678 114.986 295.925 115.74L289.822 121.843C289.068 122.595 288.046 123.018 286.981 123.018C285.915 123.018 284.894 122.595 284.14 121.843L278.198 115.901C274.844 117.988 271.171 119.511 267.324 120.409V128.808C267.323 129.873 266.899 130.894 266.146 131.647C265.393 132.401 264.372 132.824 263.306 132.826ZM239.639 113.531C239.841 113.531 240.039 113.59 240.209 113.701C243.772 116.036 247.742 117.682 251.913 118.553C252.147 118.602 252.357 118.73 252.508 118.916C252.659 119.101 252.741 119.333 252.741 119.572V128.808C252.741 129.321 252.945 129.812 253.308 130.175C253.671 130.538 254.163 130.742 254.675 130.742H263.306C263.819 130.742 264.311 130.538 264.674 130.175C265.036 129.812 265.24 129.321 265.241 128.808V119.572C265.241 119.333 265.323 119.101 265.474 118.916C265.625 118.73 265.835 118.602 266.069 118.553C270.24 117.682 274.209 116.036 277.773 113.701C277.973 113.57 278.212 113.512 278.45 113.537C278.688 113.562 278.91 113.667 279.079 113.836L285.612 120.369C285.975 120.731 286.467 120.935 286.98 120.935C287.493 120.935 287.985 120.731 288.348 120.369L294.451 114.266C294.631 114.087 294.773 113.873 294.87 113.639C294.967 113.404 295.017 113.152 295.017 112.898C295.017 112.644 294.967 112.393 294.87 112.158C294.773 111.923 294.631 111.71 294.451 111.53L287.918 104.998C287.749 104.828 287.643 104.606 287.619 104.368C287.594 104.13 287.652 103.891 287.783 103.691C290.118 100.127 291.763 96.1575 292.635 91.9871C292.684 91.753 292.812 91.5428 292.997 91.3919C293.183 91.2411 293.415 91.1588 293.654 91.1589H302.89C303.403 91.1583 303.894 90.9543 304.257 90.5916C304.62 90.2289 304.824 89.7372 304.824 89.2243V80.5934C304.824 80.0805 304.62 79.5888 304.257 79.2261C303.894 78.8635 303.403 78.6594 302.89 78.6589H293.654C293.415 78.6588 293.183 78.5765 292.998 78.4257C292.812 78.2748 292.684 78.0647 292.635 77.8306C291.764 73.6602 290.118 69.6902 287.783 66.1267C287.652 65.9265 287.594 65.6873 287.619 65.4494C287.643 65.2115 287.749 64.9893 287.918 64.8202L294.451 58.2874C294.813 57.9244 295.017 57.4324 295.017 56.9195C295.017 56.4066 294.813 55.9146 294.451 55.5516L288.348 49.4483C287.985 49.0861 287.493 48.8827 286.98 48.8827C286.468 48.8827 285.976 49.0861 285.613 49.4483L279.08 55.981C278.911 56.1501 278.689 56.2559 278.451 56.2806C278.213 56.3052 277.974 56.2473 277.773 56.1164C274.21 53.7817 270.24 52.1362 266.07 51.2653C265.835 51.2163 265.625 51.0882 265.474 50.9025C265.323 50.7167 265.241 50.4846 265.241 50.2453V41.01C265.24 40.4972 265.036 40.0054 264.674 39.6428C264.311 39.2801 263.819 39.0761 263.306 39.0755H254.675C254.163 39.0761 253.671 39.2801 253.308 39.6428C252.945 40.0054 252.741 40.4972 252.741 41.01V50.2453C252.741 50.4845 252.659 50.7164 252.508 50.9021C252.357 51.0877 252.147 51.2158 251.913 51.2648C247.742 52.1357 243.772 53.7812 240.209 56.116C240.009 56.2468 239.769 56.3048 239.532 56.2801C239.294 56.2555 239.071 56.1497 238.902 55.9806L232.37 49.4478C232.007 49.0857 231.515 48.8823 231.002 48.8823C230.489 48.8823 229.997 49.0857 229.634 49.4478L223.53 55.5513C223.168 55.9143 222.965 56.4063 222.965 56.9192C222.965 57.4321 223.168 57.9241 223.53 58.2871L230.063 64.8199C230.232 64.989 230.338 65.2112 230.363 65.4491C230.387 65.687 230.329 65.9262 230.199 66.1264C227.864 69.69 226.218 73.6599 225.347 77.8303C225.298 78.0646 225.17 78.2748 224.985 78.4257C224.799 78.5766 224.567 78.659 224.327 78.6589H215.092C214.579 78.6594 214.087 78.8635 213.725 79.2261C213.362 79.5888 213.158 80.0805 213.158 80.5934V89.2243C213.158 89.7372 213.362 90.2289 213.725 90.5916C214.087 90.9543 214.579 91.1583 215.092 91.1589H224.327C224.567 91.1589 224.798 91.2412 224.984 91.392C225.17 91.5429 225.298 91.753 225.347 91.9871C226.218 96.1575 227.863 100.127 230.198 103.691C230.329 103.891 230.387 104.13 230.362 104.368C230.338 104.606 230.232 104.828 230.063 104.998L223.53 111.53C223.35 111.71 223.208 111.923 223.111 112.158C223.013 112.393 222.963 112.644 222.963 112.898C222.963 113.152 223.013 113.404 223.111 113.639C223.208 113.873 223.35 114.087 223.53 114.266L229.633 120.369C229.996 120.731 230.488 120.935 231.001 120.935C231.514 120.935 232.006 120.731 232.369 120.369L238.901 113.836C238.998 113.739 239.113 113.663 239.24 113.61C239.366 113.558 239.502 113.531 239.639 113.531Z"
     fill="#865773"
     id="path11" />
  <path
     d="M258.996 115.906C276.117 115.906 289.996 102.027 289.996 84.9062C289.996 67.7854 276.117 53.9062 258.996 53.9062C241.875 53.9062 227.996 67.7854 227.996 84.9062C227.996 102.027 241.875 115.906 258.996 115.906Z"
     fill="white"
     id="path12"
     style="fill:url(#linearGradient159)" />
  <g
     clip-path="url(#clip0_1126_16159)"
     id="g13">
    <path
       d="M264.185 75.6562C261.945 75.6562 260.122 77.4795 260.122 79.7187C260.122 81.958 261.945 83.7812 264.185 83.7812C266.424 83.7812 268.247 81.958 268.247 79.7187C268.247 77.4795 266.424 75.6562 264.185 75.6562ZM264.185 82.1562C262.841 82.1562 261.747 81.0626 261.747 79.7187C261.747 78.3749 262.841 77.2812 264.185 77.2812C265.529 77.2812 266.622 78.3749 266.622 79.7187C266.622 81.0626 265.529 82.1562 264.185 82.1562ZM277.997 70.0402C277.997 67.7604 276.141 65.9062 273.839 65.9062C265.454 66.1451 258.734 69.5934 252.894 76.7044C250.262 76.7352 247.634 77.3739 245.279 78.5552C242.481 79.9609 240.258 82.0799 239.33 84.2232C238.747 85.572 238.901 87.1937 239.732 88.4564C240.494 89.615 241.682 90.2796 242.991 90.2796H247.121C249.275 90.2796 250.915 90.8272 251.994 91.9062C253.104 93.0161 253.621 94.5127 253.621 96.6171V100.746C253.621 102.085 254.337 103.354 255.538 104.144C256.307 104.649 257.174 104.908 258.032 104.908C258.596 104.908 259.154 104.797 259.677 104.57C261.82 103.644 263.941 101.421 265.345 98.6207C266.526 96.2677 267.165 93.6401 267.196 91.006C274.307 85.1674 277.755 78.4447 277.994 70.0386L277.997 70.0402ZM241.092 87.5659C240.559 86.7534 240.456 85.7215 240.824 84.8684C241.604 83.0646 243.542 81.2462 246.009 80.008C247.741 79.1386 249.638 78.5942 251.568 78.4041C251.398 78.6332 251.227 78.8656 251.058 79.1029C248.453 82.7347 246.409 87.1775 245.757 88.6562H242.993C242.239 88.6562 241.547 88.2581 241.092 87.5659ZM263.897 97.8927C262.657 100.361 260.84 102.298 259.037 103.078C258.234 103.427 257.238 103.312 256.433 102.786C255.681 102.29 255.249 101.547 255.249 100.746V97.9951C256.749 97.3744 261.178 95.4422 264.802 92.8422C265.038 92.6732 265.27 92.5026 265.501 92.332C265.311 94.2625 264.766 96.1605 263.897 97.8927ZM263.855 91.5244C260.811 93.7067 257.066 95.4439 255.242 96.232C255.176 93.8936 254.487 92.0996 253.146 90.7574C251.827 89.4379 249.942 88.7342 247.54 88.6611C248.378 86.8281 250.2 83.0906 252.381 80.0486C258.323 71.7579 265.156 67.7799 273.863 67.5312C275.248 67.5312 276.372 68.6574 276.372 70.0175C276.124 78.747 272.146 85.5801 263.853 91.5244H263.855ZM241.812 96.3457C240.83 97.3256 239.438 100.736 239.048 102.443C238.892 103.122 239.095 103.822 239.587 104.315C239.971 104.698 240.479 104.905 241.007 104.905C241.158 104.905 241.31 104.888 241.461 104.853C243.167 104.463 246.576 103.07 247.558 102.088C248.326 101.321 248.747 100.301 248.747 99.2155C248.747 98.13 248.325 97.1095 247.558 96.3425C246.025 94.8085 243.346 94.8085 241.813 96.3425L241.812 96.3457ZM246.407 100.941C245.772 101.577 242.795 102.881 241.097 103.27C240.916 103.31 240.791 103.223 240.736 103.166C240.679 103.109 240.59 102.987 240.632 102.805C241.02 101.107 242.325 98.13 242.961 97.4946C243.42 97.0347 244.033 96.7812 244.685 96.7812C245.336 96.7812 245.947 97.0347 246.409 97.4946C246.87 97.9545 247.122 98.5671 247.122 99.2187C247.122 99.8704 246.869 100.481 246.409 100.943L246.407 100.941Z"
       fill="#132434"
       id="path13" />
  </g>
  <path
     d="M774.994 284.526L847.897 283.404L846.824 283.022L892.906 319.64L893.153 319.836L893.447 319.832L953.184 318.983L893.447 318.132L893.985 318.325L848.967 280.41L848.525 280.037L847.897 280.027L774.994 278.905V284.526Z"
     fill="#406696"
     id="path34" />
  <path
     d="M804.996 185.906L952.996 182.406L804.996 178.906V185.906Z"
     fill="#845874"
     id="path35" />
  <path
     d="M781.996 99.6562L860.899 98.5325L861.527 98.5243L861.969 98.1518L906.987 60.2379L906.447 60.4313L966.184 59.5803L906.447 58.7293L906.155 58.7252C906.141 58.7619 859.92 95.4441 859.826 95.5377L860.897 95.155L781.994 94.0312V99.6522L781.996 99.6562Z"
     fill="#B04F5E"
     id="path36" />
  <path
     d="M923.097 51.6146H932.333C933.233 47.3179 934.929 43.2275 937.333 39.5542L930.8 33.0214C930.523 32.7451 930.304 32.417 930.155 32.0559C930.005 31.6948 929.928 31.3077 929.928 30.9169C929.928 30.526 930.005 30.139 930.155 29.7779C930.304 29.4168 930.523 29.0887 930.8 28.8123L936.902 22.7091C937.46 22.1509 938.217 21.8374 939.007 21.8374C939.796 21.8374 940.553 22.1509 941.111 22.7091L947.644 29.2418C951.317 26.8382 955.408 25.1427 959.704 24.2427V15.0074C959.704 14.2181 960.018 13.4611 960.576 12.903C961.134 12.3448 961.891 12.0312 962.681 12.0312H971.312C972.101 12.0313 972.858 12.3448 973.416 12.903C973.974 13.4611 974.288 14.2181 974.288 15.0074V24.2427C978.584 25.143 982.675 26.8388 986.348 29.2427L992.881 22.71C993.439 22.1518 994.196 21.8383 994.985 21.8383C995.775 21.8383 996.532 22.1518 997.09 22.71L1003.19 28.812C1003.47 29.0884 1003.69 29.4165 1003.84 29.7776C1003.99 30.1387 1004.07 30.5257 1004.07 30.9166C1004.07 31.3074 1003.99 31.6945 1003.84 32.0556C1003.69 32.4167 1003.47 32.7448 1003.19 33.0211L996.661 39.5539C999.064 43.2273 1000.76 47.3179 1001.66 51.6146H1010.89C1011.68 51.6146 1012.44 51.9281 1013 52.4863C1013.56 53.0444 1013.87 53.8014 1013.87 54.5908V63.2217C1013.87 64.0111 1013.56 64.7681 1013 65.3262C1012.44 65.8843 1011.68 66.1979 1010.89 66.1979H1001.66C1000.76 70.4946 999.064 74.585 996.66 78.2583L1003.19 84.7911C1003.47 85.0674 1003.69 85.3955 1003.84 85.7566C1003.99 86.1177 1004.06 86.5047 1004.06 86.8956C1004.06 87.2864 1003.99 87.6735 1003.84 88.0346C1003.69 88.3957 1003.47 88.7238 1003.19 89.0001L997.089 95.1031C996.531 95.6612 995.774 95.9748 994.985 95.9748C994.195 95.9748 993.438 95.6612 992.88 95.1031L986.348 88.5704C982.674 90.974 978.584 92.6696 974.288 93.5698V102.805C974.288 103.196 974.211 103.583 974.061 103.944C973.912 104.305 973.692 104.633 973.416 104.91C973.14 105.186 972.812 105.405 972.451 105.555C972.089 105.704 971.702 105.781 971.312 105.781H962.681C962.29 105.781 961.903 105.704 961.542 105.555C961.181 105.405 960.853 105.186 960.576 104.91C960.3 104.633 960.081 104.305 959.931 103.944C959.781 103.583 959.704 103.196 959.704 102.805V93.5698C955.408 92.6695 951.317 90.9737 947.644 88.5698L941.111 95.1025C940.553 95.6606 939.796 95.9742 939.007 95.9742C938.217 95.9742 937.461 95.6606 936.902 95.1025L930.799 88.9995C930.523 88.7232 930.304 88.3951 930.154 88.034C930.004 87.6729 929.927 87.2859 929.927 86.895C929.927 86.5041 930.004 86.1171 930.154 85.756C930.304 85.3949 930.523 85.0668 930.799 84.7905L937.332 78.2577C934.928 74.5846 933.233 70.4943 932.333 66.1979H923.097C922.706 66.1979 922.319 66.1209 921.958 65.9714C921.597 65.8218 921.269 65.6026 920.993 65.3262C920.716 65.0498 920.497 64.7217 920.348 64.3607C920.198 63.9996 920.121 63.6126 920.121 63.2217V54.5908C920.121 54.1999 920.198 53.8129 920.348 53.4518C920.497 53.0907 920.716 52.7626 920.993 52.4863C921.269 52.2099 921.597 51.9907 921.958 51.8411C922.319 51.6916 922.706 51.6146 923.097 51.6146Z"
     fill="#1E3143"
     id="path37" />
  <path
     d="M962.686 106.826H971.317C972.382 106.824 973.403 106.401 974.157 105.647C974.91 104.894 975.333 103.873 975.335 102.808V94.4087C979.181 93.5111 982.855 91.9882 986.208 89.9008L992.15 95.8425C992.904 96.5949 993.926 97.0175 994.991 97.0175C996.057 97.0175 997.078 96.5949 997.832 95.8425L1003.93 89.7395C1004.69 88.986 1005.11 87.9641 1005.11 86.8985C1005.11 85.8329 1004.69 84.811 1003.93 84.0575L997.993 78.1155C1000.08 74.7621 1001.6 71.0888 1002.5 67.2422H1010.9C1011.97 67.241 1012.99 66.8173 1013.74 66.0641C1014.49 65.3108 1014.92 64.2896 1014.92 63.2243V54.5934C1014.92 53.5281 1014.49 52.5069 1013.74 51.7536C1012.99 51.0004 1011.97 50.5767 1010.9 50.5755H1002.5C1001.6 46.7289 1000.08 43.0556 997.993 39.7022L1003.93 33.76C1004.69 33.006 1005.11 31.9843 1005.11 30.919C1005.11 29.8538 1004.69 28.8321 1003.93 28.0781L997.832 21.9751C997.078 21.2227 996.056 20.8001 994.991 20.8001C993.926 20.8001 992.904 21.2227 992.15 21.9751L986.208 27.9169C982.855 25.8295 979.181 24.3066 975.335 23.409V15.01C975.333 13.9448 974.91 12.9235 974.157 12.1703C973.403 11.4171 972.382 10.9934 971.317 10.9922H962.686C961.621 10.9934 960.599 11.4171 959.846 12.1703C959.093 12.9235 958.669 13.9448 958.668 15.01V23.409C954.821 24.3066 951.148 25.8295 947.795 27.917L941.852 21.9752C941.098 21.2228 940.077 20.8003 939.011 20.8003C937.946 20.8003 936.924 21.2228 936.17 21.9752L930.067 28.0782C929.315 28.8322 928.892 29.854 928.892 30.9192C928.892 31.9844 929.315 33.0062 930.067 33.7602L936.009 39.7022C933.922 43.0556 932.399 46.7289 931.501 50.5755H923.102C922.037 50.5767 921.016 51.0004 920.263 51.7536C919.51 52.5069 919.086 53.5281 919.085 54.5934V63.2243C919.086 64.2896 919.51 65.3108 920.263 66.0641C921.016 66.8173 922.037 67.241 923.102 67.2422H931.501C932.399 71.0888 933.922 74.7621 936.009 78.1155L930.068 84.0577C929.314 84.8111 928.891 85.8331 928.891 86.8987C928.891 87.9642 929.314 88.9862 930.068 89.7397L936.17 95.8426C936.924 96.5951 937.946 97.0176 939.011 97.0176C940.077 97.0176 941.099 96.5951 941.853 95.8426L947.794 89.901C951.148 91.9883 954.821 93.5111 958.668 94.4087V102.808C958.669 103.873 959.093 104.894 959.846 105.647C960.599 106.401 961.621 106.824 962.686 106.826ZM986.353 87.5313C986.151 87.5312 985.953 87.5902 985.783 87.701C982.22 90.036 978.25 91.6818 974.08 92.5529C973.845 92.6019 973.635 92.73 973.484 92.9156C973.334 93.1013 973.251 93.3332 973.251 93.5724V102.808C973.251 103.321 973.047 103.812 972.684 104.175C972.321 104.538 971.83 104.742 971.317 104.742H962.686C962.173 104.742 961.681 104.538 961.319 104.175C960.956 103.812 960.752 103.321 960.751 102.808V93.5724C960.751 93.3332 960.669 93.1013 960.518 92.9156C960.367 92.73 960.157 92.6019 959.923 92.5529C955.753 91.6818 951.783 90.036 948.219 87.701C948.019 87.5701 947.78 87.5122 947.542 87.5368C947.304 87.5615 947.082 87.6673 946.913 87.8364L940.38 94.3691C940.017 94.7314 939.525 94.9349 939.012 94.9349C938.499 94.9349 938.007 94.7314 937.644 94.3691L931.541 88.2661C931.362 88.0865 931.219 87.8732 931.122 87.6385C931.025 87.4038 930.975 87.1523 930.975 86.8982C930.975 86.6442 931.025 86.3926 931.122 86.1579C931.219 85.9232 931.362 85.7099 931.541 85.5303L938.074 78.9975C938.243 78.8284 938.349 78.6062 938.374 78.3683C938.398 78.1304 938.34 77.8912 938.209 77.691C935.874 74.1275 934.229 70.1575 933.358 65.9871C933.309 65.753 933.18 65.5428 932.995 65.3919C932.809 65.2411 932.577 65.1588 932.338 65.1589H923.102C922.59 65.1583 922.098 64.9543 921.735 64.5916C921.373 64.2289 921.169 63.7372 921.168 63.2243V54.5934C921.169 54.0805 921.373 53.5888 921.735 53.2261C922.098 52.8635 922.59 52.6594 923.102 52.6589H932.338C932.577 52.6588 932.809 52.5765 932.995 52.4257C933.18 52.2748 933.308 52.0647 933.357 51.8306C934.228 47.6602 935.874 43.6902 938.209 40.1267C938.34 39.9265 938.398 39.6873 938.373 39.4494C938.349 39.2115 938.243 38.9893 938.074 38.8202L931.541 32.2874C931.179 31.9244 930.975 31.4324 930.975 30.9195C930.975 30.4066 931.179 29.9146 931.541 29.5516L937.644 23.4483C938.007 23.0861 938.499 22.8827 939.012 22.8827C939.525 22.8827 940.016 23.0861 940.38 23.4483L946.912 29.981C947.081 30.1501 947.304 30.2559 947.541 30.2806C947.779 30.3052 948.019 30.2473 948.219 30.1164C951.782 27.7817 955.752 26.1362 959.923 25.2653C960.157 25.2163 960.367 25.0882 960.518 24.9025C960.669 24.7167 960.751 24.4846 960.751 24.2453V15.01C960.752 14.4972 960.956 14.0054 961.319 13.6428C961.681 13.2801 962.173 13.0761 962.686 13.0755H971.317C971.83 13.0761 972.321 13.2801 972.684 13.6428C973.047 14.0054 973.251 14.4972 973.251 15.01V24.2453C973.251 24.4845 973.334 24.7164 973.484 24.9021C973.635 25.0877 973.845 25.2158 974.08 25.2648C978.25 26.1357 982.22 27.7812 985.783 30.116C985.984 30.2468 986.223 30.3048 986.461 30.2801C986.699 30.2555 986.921 30.1497 987.09 29.9806L993.623 23.4478C993.986 23.0857 994.478 22.8823 994.99 22.8823C995.503 22.8823 995.995 23.0857 996.358 23.4478L1002.46 29.5513C1002.82 29.9143 1003.03 30.4063 1003.03 30.9192C1003.03 31.4321 1002.82 31.9241 1002.46 32.2871L995.929 38.8199C995.76 38.989 995.654 39.2112 995.629 39.4491C995.605 39.687 995.663 39.9262 995.794 40.1264C998.128 43.69 999.774 47.6599 1000.64 51.8303C1000.69 52.0646 1000.82 52.2748 1001.01 52.4257C1001.19 52.5766 1001.43 52.659 1001.66 52.6589H1010.9C1011.41 52.6594 1011.9 52.8635 1012.27 53.2261C1012.63 53.5888 1012.83 54.0805 1012.83 54.5934V63.2243C1012.83 63.7372 1012.63 64.2289 1012.27 64.5916C1011.9 64.9543 1011.41 65.1583 1010.9 65.1589H1001.66C1001.43 65.1589 1001.19 65.2412 1001.01 65.392C1000.82 65.5429 1000.69 65.753 1000.65 65.9871C999.774 70.1575 998.129 74.1274 995.794 77.691C995.663 77.8912 995.605 78.1304 995.63 78.3683C995.655 78.6062 995.76 78.8284 995.93 78.9975L1002.46 85.5303C1002.64 85.7099 1002.78 85.9232 1002.88 86.1579C1002.98 86.3926 1003.03 86.6442 1003.03 86.8982C1003.03 87.1523 1002.98 87.4038 1002.88 87.6385C1002.78 87.8732 1002.64 88.0865 1002.46 88.2661L996.359 94.3691C995.996 94.7314 995.504 94.9349 994.991 94.9349C994.478 94.9349 993.987 94.7314 993.623 94.3691L987.091 87.8364C986.994 87.7395 986.879 87.6626 986.752 87.6103C986.626 87.5579 986.49 87.5311 986.353 87.5313Z"
     fill="#B04F5E"
     id="path38" />
  <path
     d="M967.145 89.9062C950.024 89.9062 936.145 76.0271 936.145 58.9062C936.145 41.7854 950.024 27.9062 967.145 27.9062C984.265 27.9062 998.145 41.7854 998.145 58.9062C998.145 76.0271 984.265 89.9062 967.145 89.9062Z"
     fill="white"
     id="path39"
     style="fill:url(#linearGradient161)" />
  <g
     clip-path="url(#clip1_1126_16159)"
     id="g40">
    <path
       d="M968.188 60.4912C967.811 62.2962 966.17 63.6578 964.207 63.6578C961.968 63.6578 960.145 61.8829 960.145 59.6995C960.145 57.7868 961.542 56.1893 963.395 55.8203V47.7438C961.542 47.3764 960.145 45.7773 960.145 43.8646C960.145 41.6812 961.968 39.9062 964.207 39.9062C966.168 39.9062 967.81 41.2679 968.188 43.0729H978.102C978.479 41.2679 980.121 39.9062 982.084 39.9062C984.321 39.9078 986.145 41.6828 986.145 43.8662C986.145 45.7788 984.747 47.3764 982.895 47.7453V55.8219C984.747 56.1893 986.145 57.7884 986.145 59.7011C986.145 61.8845 984.321 63.6594 982.082 63.6594C980.121 63.6594 978.479 62.2978 978.101 60.4928H968.187L968.188 60.4912ZM981.27 55.8203V47.7438C979.68 47.4287 978.426 46.2063 978.101 44.6563H968.187C967.863 46.2048 966.607 47.4271 965.018 47.7438V55.8203C966.607 56.1354 967.862 57.3578 968.187 58.9078H978.101C978.424 57.3593 979.68 56.137 981.27 55.8203ZM961.77 59.6995C961.77 61.0089 962.863 62.0745 964.207 62.0745C965.551 62.0745 966.645 61.0089 966.645 59.6995C966.645 58.3901 965.551 57.3245 964.207 57.3245C962.863 57.3245 961.77 58.3901 961.77 59.6995ZM964.207 41.4912C962.863 41.4912 961.77 42.5568 961.77 43.8662C961.77 45.1756 962.863 46.2412 964.207 46.2412C965.551 46.2412 966.645 45.1756 966.645 43.8662C966.645 42.5568 965.551 41.4912 964.207 41.4912ZM984.52 43.8662C984.52 42.5568 983.426 41.4912 982.082 41.4912C980.738 41.4912 979.645 42.5568 979.645 43.8662C979.645 45.1756 980.738 46.2412 982.082 46.2412C983.426 46.2412 984.52 45.1756 984.52 43.8662ZM982.082 62.0745C983.426 62.0745 984.52 61.0089 984.52 59.6995C984.52 58.3901 983.426 57.3245 982.082 57.3245C980.738 57.3245 979.645 58.3901 979.645 59.6995C979.645 61.0089 980.738 62.0745 982.082 62.0745ZM950.395 70.0703V63.5771C948.542 63.2098 947.145 61.6106 947.145 59.6979C947.145 57.5145 948.968 55.7396 951.207 55.7396C953.446 55.7396 955.27 57.5145 955.27 59.6979C955.27 61.6106 953.872 63.2082 952.02 63.5771V70.0703C953.609 70.3854 954.863 71.6078 955.188 73.1578H965.02C965.343 71.6093 966.599 70.387 968.188 70.0703V66.0328C968.188 65.5958 968.552 65.2412 969.001 65.2412C969.449 65.2412 969.813 65.5958 969.813 66.0328V70.0703C971.666 70.4377 973.063 72.0368 973.063 73.9495C973.063 76.1329 971.24 77.9078 969.001 77.9078C967.039 77.9078 965.398 76.5462 965.02 74.7412H955.188C954.811 76.5462 953.17 77.9078 951.207 77.9078C948.968 77.9078 947.145 76.1329 947.145 73.9495C947.145 72.0368 948.542 70.4393 950.395 70.0703ZM953.645 59.6995C953.645 58.3901 952.551 57.3245 951.207 57.3245C949.863 57.3245 948.77 58.3901 948.77 59.6995C948.77 61.0089 949.863 62.0745 951.207 62.0745C952.551 62.0745 953.645 61.0089 953.645 59.6995ZM969.001 76.3245C970.345 76.3245 971.438 75.2589 971.438 73.9495C971.438 72.6401 970.345 71.5745 969.001 71.5745C967.657 71.5745 966.563 72.6401 966.563 73.9495C966.563 75.2589 967.657 76.3245 969.001 76.3245ZM951.207 76.3245C952.551 76.3245 953.645 75.2589 953.645 73.9495C953.645 72.6401 952.551 71.5745 951.207 71.5745C949.863 71.5745 948.77 72.6401 948.77 73.9495C948.77 75.2589 949.863 76.3245 951.207 76.3245Z"
       fill="#132434"
       id="path40" />
  </g>
  <path
     d="M1019.89 175.615H1010.66C1009.76 171.318 1008.06 167.227 1005.66 163.554L1012.19 157.021C1012.47 156.745 1012.69 156.417 1012.84 156.056C1012.99 155.695 1013.06 155.308 1013.06 154.917C1013.06 154.526 1012.99 154.139 1012.84 153.778C1012.69 153.417 1012.47 153.089 1012.19 152.812L1006.09 146.709C1005.53 146.151 1004.77 145.837 1003.99 145.837C1003.2 145.837 1002.44 146.151 1001.88 146.709L995.348 153.242C991.675 150.838 987.584 149.143 983.288 148.243V139.007C983.288 138.218 982.974 137.461 982.416 136.903C981.858 136.345 981.101 136.031 980.312 136.031H971.681C970.891 136.031 970.134 136.345 969.576 136.903C969.018 137.461 968.704 138.218 968.704 139.007V148.243C964.408 149.143 960.317 150.839 956.644 153.243L950.111 146.71C949.553 146.152 948.796 145.838 948.007 145.838C947.217 145.838 946.46 146.152 945.902 146.71L939.799 152.812C939.523 153.088 939.303 153.417 939.154 153.778C939.004 154.139 938.927 154.526 938.927 154.917C938.927 155.307 939.004 155.694 939.154 156.056C939.303 156.417 939.523 156.745 939.799 157.021L946.332 163.554C943.928 167.227 942.233 171.318 941.333 175.615H932.097C931.308 175.615 930.551 175.928 929.993 176.486C929.435 177.044 929.121 177.801 929.121 178.591V187.222C929.121 188.011 929.435 188.768 929.993 189.326C930.551 189.884 931.308 190.198 932.097 190.198H941.333C942.233 194.495 943.929 198.585 946.333 202.258L939.8 208.791C939.523 209.067 939.304 209.396 939.155 209.757C939.005 210.118 938.928 210.505 938.928 210.896C938.928 211.286 939.005 211.673 939.155 212.035C939.304 212.396 939.523 212.724 939.8 213L945.903 219.103C946.461 219.661 947.218 219.975 948.007 219.975C948.797 219.975 949.554 219.661 950.112 219.103L956.645 212.57C960.318 214.974 964.408 216.67 968.704 217.57V226.805C968.704 227.196 968.781 227.583 968.931 227.944C969.081 228.305 969.3 228.633 969.576 228.91C969.852 229.186 970.181 229.405 970.542 229.555C970.903 229.704 971.29 229.781 971.681 229.781H980.312C980.702 229.781 981.089 229.704 981.45 229.555C981.812 229.405 982.14 229.186 982.416 228.91C982.692 228.633 982.912 228.305 983.061 227.944C983.211 227.583 983.288 227.196 983.288 226.805V217.57C987.584 216.669 991.675 214.974 995.348 212.57L1001.88 219.103C1002.44 219.661 1003.2 219.974 1003.99 219.974C1004.77 219.974 1005.53 219.661 1006.09 219.103L1012.19 213C1012.47 212.723 1012.69 212.395 1012.84 212.034C1012.99 211.673 1013.06 211.286 1013.06 210.895C1013.06 210.504 1012.99 210.117 1012.84 209.756C1012.69 209.395 1012.47 209.067 1012.19 208.79L1005.66 202.258C1008.06 198.585 1009.76 194.494 1010.66 190.198H1019.89C1020.29 190.198 1020.67 190.121 1021.03 189.971C1021.39 189.822 1021.72 189.603 1022 189.326C1022.28 189.05 1022.49 188.722 1022.64 188.361C1022.79 188 1022.87 187.613 1022.87 187.222V178.591C1022.87 178.2 1022.79 177.813 1022.64 177.452C1022.49 177.091 1022.28 176.763 1022 176.486C1021.72 176.21 1021.39 175.991 1021.03 175.841C1020.67 175.692 1020.29 175.615 1019.89 175.615Z"
     fill="#1E3143"
     id="path41" />
  <path
     d="M980.306 230.826H971.675C970.61 230.824 969.589 230.401 968.836 229.647C968.082 228.894 967.659 227.873 967.658 226.808V218.409C963.811 217.511 960.138 215.988 956.784 213.901L950.842 219.842C950.088 220.595 949.066 221.017 948.001 221.017C946.936 221.017 945.914 220.595 945.16 219.842L939.057 213.74C938.304 212.986 937.881 211.964 937.881 210.899C937.881 209.833 938.304 208.811 939.057 208.058L944.999 202.116C942.912 198.762 941.389 195.089 940.491 191.242H932.092C931.027 191.241 930.006 190.817 929.252 190.064C928.499 189.311 928.075 188.29 928.074 187.224V178.593C928.075 177.528 928.499 176.507 929.252 175.754C930.006 175 931.027 174.577 932.092 174.576H940.491C941.389 170.729 942.912 167.056 944.999 163.702L939.057 157.76C938.305 157.006 937.882 155.984 937.882 154.919C937.882 153.854 938.305 152.832 939.057 152.078L945.16 145.975C945.914 145.223 946.936 144.8 948.001 144.8C949.066 144.8 950.088 145.223 950.842 145.975L956.784 151.917C960.138 149.829 963.811 148.307 967.658 147.409V139.01C967.659 137.945 968.082 136.924 968.836 136.17C969.589 135.417 970.61 134.993 971.675 134.992H980.306C981.372 134.993 982.393 135.417 983.146 136.17C983.899 136.924 984.323 137.945 984.324 139.01V147.409C988.171 148.307 991.844 149.83 995.198 151.917L1001.14 145.975C1001.89 145.223 1002.92 144.8 1003.98 144.8C1005.05 144.8 1006.07 145.223 1006.82 145.975L1012.92 152.078C1013.68 152.832 1014.1 153.854 1014.1 154.919C1014.1 155.984 1013.68 157.006 1012.92 157.76L1006.98 163.702C1009.07 167.056 1010.59 170.729 1011.49 174.576H1019.89C1020.95 174.577 1021.98 175 1022.73 175.754C1023.48 176.507 1023.91 177.528 1023.91 178.593V187.224C1023.91 188.29 1023.48 189.311 1022.73 190.064C1021.98 190.817 1020.95 191.241 1019.89 191.242H1011.49C1010.59 195.089 1009.07 198.762 1006.98 202.116L1012.92 208.058C1013.68 208.811 1014.1 209.833 1014.1 210.899C1014.1 211.964 1013.68 212.986 1012.92 213.74L1006.82 219.843C1006.07 220.595 1005.05 221.018 1003.98 221.018C1002.92 221.018 1001.89 220.595 1001.14 219.843L995.198 213.901C991.844 215.988 988.171 217.511 984.324 218.409V226.808C984.323 227.873 983.899 228.894 983.146 229.647C982.393 230.401 981.372 230.824 980.306 230.826ZM956.639 211.531C956.841 211.531 957.039 211.59 957.209 211.701C960.772 214.036 964.742 215.682 968.913 216.553C969.147 216.602 969.357 216.73 969.508 216.916C969.659 217.101 969.741 217.333 969.741 217.572V226.808C969.741 227.321 969.945 227.812 970.308 228.175C970.671 228.538 971.163 228.742 971.675 228.742H980.306C980.819 228.742 981.311 228.538 981.674 228.175C982.036 227.812 982.24 227.321 982.241 226.808V217.572C982.241 217.333 982.323 217.101 982.474 216.916C982.625 216.73 982.835 216.602 983.069 216.553C987.24 215.682 991.209 214.036 994.773 211.701C994.973 211.57 995.212 211.512 995.45 211.537C995.688 211.562 995.91 211.667 996.079 211.836L1002.61 218.369C1002.98 218.731 1003.47 218.935 1003.98 218.935C1004.49 218.935 1004.98 218.731 1005.35 218.369L1011.45 212.266C1011.63 212.087 1011.77 211.873 1011.87 211.639C1011.97 211.404 1012.02 211.152 1012.02 210.898C1012.02 210.644 1011.97 210.393 1011.87 210.158C1011.77 209.923 1011.63 209.71 1011.45 209.53L1004.92 202.998C1004.75 202.828 1004.64 202.606 1004.62 202.368C1004.59 202.13 1004.65 201.891 1004.78 201.691C1007.12 198.127 1008.76 194.158 1009.63 189.987C1009.68 189.753 1009.81 189.543 1010 189.392C1010.18 189.241 1010.42 189.159 1010.65 189.159H1019.89C1020.4 189.158 1020.89 188.954 1021.26 188.592C1021.62 188.229 1021.82 187.737 1021.82 187.224V178.593C1021.82 178.08 1021.62 177.589 1021.26 177.226C1020.89 176.863 1020.4 176.659 1019.89 176.659H1010.65C1010.42 176.659 1010.18 176.576 1010 176.426C1009.81 176.275 1009.68 176.065 1009.63 175.831C1008.76 171.66 1007.12 167.69 1004.78 164.127C1004.65 163.926 1004.59 163.687 1004.62 163.449C1004.64 163.211 1004.75 162.989 1004.92 162.82L1011.45 156.287C1011.81 155.924 1012.02 155.432 1012.02 154.919C1012.02 154.407 1011.81 153.915 1011.45 153.552L1005.35 147.448C1004.99 147.086 1004.49 146.883 1003.98 146.883C1003.47 146.883 1002.98 147.086 1002.61 147.448L996.08 153.981C995.911 154.15 995.689 154.256 995.451 154.281C995.213 154.305 994.974 154.247 994.773 154.116C991.21 151.782 987.24 150.136 983.07 149.265C982.835 149.216 982.625 149.088 982.474 148.902C982.323 148.717 982.241 148.485 982.241 148.245V139.01C982.24 138.497 982.036 138.005 981.674 137.643C981.311 137.28 980.819 137.076 980.306 137.076H971.675C971.163 137.076 970.671 137.28 970.308 137.643C969.945 138.005 969.741 138.497 969.741 139.01V148.245C969.741 148.485 969.659 148.716 969.508 148.902C969.357 149.088 969.147 149.216 968.913 149.265C964.742 150.136 960.772 151.781 957.209 154.116C957.009 154.247 956.769 154.305 956.532 154.28C956.294 154.255 956.071 154.15 955.902 153.981L949.37 147.448C949.007 147.086 948.515 146.882 948.002 146.882C947.489 146.882 946.997 147.086 946.634 147.448L940.53 153.551C940.168 153.914 939.965 154.406 939.965 154.919C939.965 155.432 940.168 155.924 940.53 156.287L947.063 162.82C947.232 162.989 947.338 163.211 947.363 163.449C947.387 163.687 947.329 163.926 947.199 164.126C944.864 167.69 943.218 171.66 942.347 175.83C942.298 176.065 942.17 176.275 941.985 176.426C941.799 176.577 941.567 176.659 941.327 176.659H932.092C931.579 176.659 931.087 176.863 930.725 177.226C930.362 177.589 930.158 178.08 930.158 178.593V187.224C930.158 187.737 930.362 188.229 930.725 188.592C931.087 188.954 931.579 189.158 932.092 189.159H941.327C941.567 189.159 941.798 189.241 941.984 189.392C942.17 189.543 942.298 189.753 942.347 189.987C943.218 194.157 944.863 198.127 947.198 201.691C947.329 201.891 947.387 202.13 947.362 202.368C947.338 202.606 947.232 202.828 947.063 202.998L940.53 209.53C940.35 209.71 940.208 209.923 940.111 210.158C940.013 210.393 939.963 210.644 939.963 210.898C939.963 211.152 940.013 211.404 940.111 211.639C940.208 211.873 940.35 212.087 940.53 212.266L946.633 218.369C946.996 218.731 947.488 218.935 948.001 218.935C948.514 218.935 949.006 218.731 949.369 218.369L955.901 211.836C955.998 211.739 956.113 211.663 956.24 211.61C956.366 211.558 956.502 211.531 956.639 211.531Z"
     fill="#845874"
     id="path42" />
  <path
     d="M975.996 213.906C993.117 213.906 1007 200.027 1007 182.906C1007 165.785 993.117 151.906 975.996 151.906C958.875 151.906 944.996 165.785 944.996 182.906C944.996 200.027 958.875 213.906 975.996 213.906Z"
     fill="white"
     id="path43"
     style="fill:url(#linearGradient163)" />
  <g
     clip-path="url(#clip2_1126_16159)"
     id="g44">
    <path
       d="M988.684 165.531H964.309C960.277 165.531 956.996 168.812 956.996 172.844V187.469C956.996 191.5 960.277 194.781 964.309 194.781H975.684V199.656H968.371C967.923 199.656 967.559 200.02 967.559 200.469C967.559 200.917 967.923 201.281 968.371 201.281H984.621C985.07 201.281 985.434 200.917 985.434 200.469C985.434 200.02 985.07 199.656 984.621 199.656H977.309V194.781H988.684C992.715 194.781 995.996 191.5 995.996 187.469V172.844C995.996 168.812 992.715 165.531 988.684 165.531ZM994.371 187.469C994.371 190.605 991.82 193.156 988.684 193.156H964.309C961.172 193.156 958.621 190.605 958.621 187.469V172.844C958.621 169.707 961.172 167.156 964.309 167.156H988.684C991.82 167.156 994.371 169.707 994.371 172.844V187.469ZM986.682 177.286C988.266 178.871 988.266 181.45 986.682 183.033L981.672 188.042C981.512 188.202 981.304 188.28 981.096 188.28C980.888 188.28 980.68 188.2 980.521 188.042C980.204 187.726 980.204 187.21 980.521 186.893L985.531 181.884C986.482 180.933 986.482 179.386 985.531 178.435L980.513 173.417C980.196 173.101 980.196 172.585 980.513 172.268C980.83 171.952 981.345 171.952 981.662 172.268L986.682 177.286ZM967.461 178.435C966.51 179.386 966.51 180.933 967.461 181.884L972.471 186.893C972.788 187.21 972.788 187.726 972.471 188.042C972.312 188.202 972.104 188.28 971.896 188.28C971.688 188.28 971.48 188.2 971.32 188.042L966.311 183.033C964.726 181.448 964.726 178.869 966.311 177.286L971.329 172.268C971.645 171.952 972.161 171.952 972.477 172.268C972.794 172.585 972.794 173.101 972.477 173.417L967.461 178.435Z"
       fill="#132434"
       id="path44" />
  </g>
  <path
     d="M1000.89 312.615H991.66C990.759 308.318 989.064 304.227 986.66 300.554L993.192 294.021C993.469 293.745 993.688 293.417 993.838 293.056C993.987 292.695 994.064 292.308 994.064 291.917C994.064 291.526 993.987 291.139 993.838 290.778C993.688 290.417 993.469 290.089 993.192 289.812L987.09 283.709C986.532 283.151 985.775 282.837 984.986 282.837C984.196 282.837 983.439 283.151 982.881 283.709L976.348 290.242C972.675 287.838 968.584 286.143 964.288 285.243V276.007C964.288 275.218 963.974 274.461 963.416 273.903C962.858 273.345 962.101 273.031 961.312 273.031H952.681C951.891 273.031 951.134 273.345 950.576 273.903C950.018 274.461 949.704 275.218 949.704 276.007V285.243C945.408 286.143 941.317 287.839 937.644 290.243L931.111 283.71C930.553 283.152 929.796 282.838 929.007 282.838C928.217 282.838 927.46 283.152 926.902 283.71L920.799 289.812C920.523 290.088 920.303 290.417 920.154 290.778C920.004 291.139 919.927 291.526 919.927 291.917C919.927 292.307 920.004 292.694 920.154 293.056C920.303 293.417 920.523 293.745 920.799 294.021L927.332 300.554C924.928 304.227 923.233 308.318 922.333 312.615H913.097C912.308 312.615 911.551 312.928 910.993 313.486C910.435 314.044 910.121 314.801 910.121 315.591V324.222C910.121 325.011 910.435 325.768 910.993 326.326C911.551 326.884 912.308 327.198 913.097 327.198H922.333C923.233 331.495 924.929 335.585 927.333 339.258L920.8 345.791C920.523 346.067 920.304 346.396 920.155 346.757C920.005 347.118 919.928 347.505 919.928 347.896C919.928 348.286 920.005 348.673 920.155 349.035C920.304 349.396 920.523 349.724 920.8 350L926.903 356.103C927.461 356.661 928.218 356.975 929.007 356.975C929.797 356.975 930.554 356.661 931.112 356.103L937.645 349.57C941.318 351.974 945.408 353.67 949.704 354.57V363.805C949.704 364.196 949.781 364.583 949.931 364.944C950.081 365.305 950.3 365.633 950.576 365.91C950.852 366.186 951.181 366.405 951.542 366.555C951.903 366.704 952.29 366.781 952.681 366.781H961.312C961.702 366.781 962.089 366.704 962.45 366.555C962.812 366.405 963.14 366.186 963.416 365.91C963.692 365.633 963.912 365.305 964.061 364.944C964.211 364.583 964.288 364.196 964.288 363.805V354.57C968.584 353.669 972.675 351.974 976.348 349.57L982.881 356.103C983.439 356.661 984.196 356.974 984.985 356.974C985.775 356.974 986.532 356.661 987.09 356.103L993.193 350C993.469 349.723 993.689 349.395 993.838 349.034C993.988 348.673 994.065 348.286 994.065 347.895C994.065 347.504 993.988 347.117 993.838 346.756C993.689 346.395 993.469 346.067 993.193 345.79L986.66 339.258C989.064 335.585 990.759 331.494 991.66 327.198H1000.89C1001.29 327.198 1001.67 327.121 1002.03 326.971C1002.39 326.822 1002.72 326.603 1003 326.326C1003.28 326.05 1003.49 325.722 1003.64 325.361C1003.79 325 1003.87 324.613 1003.87 324.222V315.591C1003.87 315.2 1003.79 314.813 1003.64 314.452C1003.49 314.091 1003.28 313.763 1003 313.486C1002.72 313.21 1002.39 312.991 1002.03 312.841C1001.67 312.692 1001.29 312.615 1000.89 312.615Z"
     fill="#1E3143"
     id="path45" />
  <path
     d="M961.306 367.826H952.675C951.61 367.824 950.589 367.401 949.836 366.647C949.082 365.894 948.659 364.873 948.658 363.808V355.409C944.811 354.511 941.138 352.988 937.784 350.901L931.842 356.842C931.088 357.595 930.066 358.017 929.001 358.017C927.936 358.017 926.914 357.595 926.16 356.842L920.057 350.74C919.304 349.986 918.881 348.964 918.881 347.899C918.881 346.833 919.304 345.811 920.057 345.058L925.999 339.116C923.912 335.762 922.389 332.089 921.491 328.242H913.092C912.027 328.241 911.006 327.817 910.252 327.064C909.499 326.311 909.075 325.29 909.074 324.224V315.593C909.075 314.528 909.499 313.507 910.252 312.754C911.006 312 912.027 311.577 913.092 311.576H921.491C922.389 307.729 923.912 304.056 925.999 300.702L920.057 294.76C919.305 294.006 918.882 292.984 918.882 291.919C918.882 290.854 919.305 289.832 920.057 289.078L926.16 282.975C926.914 282.223 927.936 281.8 929.001 281.8C930.066 281.8 931.088 282.223 931.842 282.975L937.784 288.917C941.138 286.829 944.811 285.307 948.658 284.409V276.01C948.659 274.945 949.082 273.924 949.836 273.17C950.589 272.417 951.61 271.993 952.675 271.992H961.306C962.372 271.993 963.393 272.417 964.146 273.17C964.899 273.924 965.323 274.945 965.324 276.01V284.409C969.171 285.307 972.844 286.83 976.198 288.917L982.14 282.975C982.894 282.223 983.916 281.8 984.981 281.8C986.046 281.8 987.068 282.223 987.822 282.975L993.925 289.078C994.677 289.832 995.1 290.854 995.1 291.919C995.1 292.984 994.677 294.006 993.925 294.76L987.983 300.702C990.07 304.056 991.593 307.729 992.491 311.576H1000.89C1001.95 311.577 1002.98 312 1003.73 312.754C1004.48 313.507 1004.91 314.528 1004.91 315.593V324.224C1004.91 325.29 1004.48 326.311 1003.73 327.064C1002.98 327.817 1001.95 328.241 1000.89 328.242H992.491C991.593 332.089 990.07 335.762 987.983 339.116L993.925 345.058C994.678 345.811 995.101 346.833 995.101 347.899C995.101 348.964 994.678 349.986 993.925 350.74L987.822 356.843C987.068 357.595 986.046 358.018 984.981 358.018C983.915 358.018 982.894 357.595 982.14 356.843L976.198 350.901C972.844 352.988 969.171 354.511 965.324 355.409V363.808C965.323 364.873 964.899 365.894 964.146 366.647C963.393 367.401 962.372 367.824 961.306 367.826ZM937.639 348.531C937.841 348.531 938.039 348.59 938.209 348.701C941.772 351.036 945.742 352.682 949.913 353.553C950.147 353.602 950.357 353.73 950.508 353.916C950.659 354.101 950.741 354.333 950.741 354.572V363.808C950.741 364.321 950.945 364.812 951.308 365.175C951.671 365.538 952.163 365.742 952.675 365.742H961.306C961.819 365.742 962.311 365.538 962.674 365.175C963.036 364.812 963.24 364.321 963.241 363.808V354.572C963.241 354.333 963.323 354.101 963.474 353.916C963.625 353.73 963.835 353.602 964.069 353.553C968.24 352.682 972.209 351.036 975.773 348.701C975.973 348.57 976.212 348.512 976.45 348.537C976.688 348.562 976.91 348.667 977.079 348.836L983.612 355.369C983.975 355.731 984.467 355.935 984.98 355.935C985.493 355.935 985.985 355.731 986.348 355.369L992.451 349.266C992.631 349.087 992.773 348.873 992.87 348.639C992.967 348.404 993.017 348.152 993.017 347.898C993.017 347.644 992.967 347.393 992.87 347.158C992.773 346.923 992.631 346.71 992.451 346.53L985.918 339.998C985.749 339.828 985.643 339.606 985.619 339.368C985.594 339.13 985.652 338.891 985.783 338.691C988.118 335.127 989.763 331.158 990.635 326.987C990.684 326.753 990.812 326.543 990.997 326.392C991.183 326.241 991.415 326.159 991.654 326.159H1000.89C1001.4 326.158 1001.89 325.954 1002.26 325.592C1002.62 325.229 1002.82 324.737 1002.82 324.224V315.593C1002.82 315.08 1002.62 314.589 1002.26 314.226C1001.89 313.863 1001.4 313.659 1000.89 313.659H991.654C991.415 313.659 991.183 313.576 990.998 313.426C990.812 313.275 990.684 313.065 990.635 312.831C989.764 308.66 988.118 304.69 985.783 301.127C985.652 300.926 985.594 300.687 985.619 300.449C985.643 300.211 985.749 299.989 985.918 299.82L992.451 293.287C992.813 292.924 993.017 292.432 993.017 291.919C993.017 291.407 992.813 290.915 992.451 290.552L986.348 284.448C985.985 284.086 985.493 283.883 984.98 283.883C984.468 283.883 983.976 284.086 983.613 284.448L977.08 290.981C976.911 291.15 976.689 291.256 976.451 291.281C976.213 291.305 975.974 291.247 975.773 291.116C972.21 288.782 968.24 287.136 964.07 286.265C963.835 286.216 963.625 286.088 963.474 285.902C963.323 285.717 963.241 285.485 963.241 285.245V276.01C963.24 275.497 963.036 275.005 962.674 274.643C962.311 274.28 961.819 274.076 961.306 274.076H952.675C952.163 274.076 951.671 274.28 951.308 274.643C950.945 275.005 950.741 275.497 950.741 276.01V285.245C950.741 285.485 950.659 285.716 950.508 285.902C950.357 286.088 950.147 286.216 949.913 286.265C945.742 287.136 941.772 288.781 938.209 291.116C938.009 291.247 937.769 291.305 937.532 291.28C937.294 291.255 937.071 291.15 936.902 290.981L930.37 284.448C930.007 284.086 929.515 283.882 929.002 283.882C928.489 283.882 927.997 284.086 927.634 284.448L921.53 290.551C921.168 290.914 920.965 291.406 920.965 291.919C920.965 292.432 921.168 292.924 921.53 293.287L928.063 299.82C928.232 299.989 928.338 300.211 928.363 300.449C928.387 300.687 928.329 300.926 928.199 301.126C925.864 304.69 924.218 308.66 923.347 312.83C923.298 313.065 923.17 313.275 922.985 313.426C922.799 313.577 922.567 313.659 922.327 313.659H913.092C912.579 313.659 912.087 313.863 911.725 314.226C911.362 314.589 911.158 315.08 911.158 315.593V324.224C911.158 324.737 911.362 325.229 911.725 325.592C912.087 325.954 912.579 326.158 913.092 326.159H922.327C922.567 326.159 922.798 326.241 922.984 326.392C923.17 326.543 923.298 326.753 923.347 326.987C924.218 331.157 925.863 335.127 928.198 338.691C928.329 338.891 928.387 339.13 928.362 339.368C928.338 339.606 928.232 339.828 928.063 339.998L921.53 346.53C921.35 346.71 921.208 346.923 921.111 347.158C921.013 347.393 920.963 347.644 920.963 347.898C920.963 348.152 921.013 348.404 921.111 348.639C921.208 348.873 921.35 349.087 921.53 349.266L927.633 355.369C927.996 355.731 928.488 355.935 929.001 355.935C929.514 355.935 930.006 355.731 930.369 355.369L936.901 348.836C936.998 348.739 937.113 348.663 937.24 348.61C937.366 348.558 937.502 348.531 937.639 348.531Z"
     fill="#406696"
     id="path46" />
  <path
     d="M956.996 350.906C974.117 350.906 987.996 337.027 987.996 319.906C987.996 302.785 974.117 288.906 956.996 288.906C939.875 288.906 925.996 302.785 925.996 319.906C925.996 337.027 939.875 350.906 956.996 350.906Z"
     fill="white"
     id="path47"
     style="fill:url(#linearGradient165)" />
  <g
     clip-path="url(#clip3_1126_16159)"
     id="g48">
    <path
       d="M968.434 303.406H946.559C942.94 303.406 939.996 306.435 939.996 310.156V329.656C939.996 333.378 942.94 336.406 946.559 336.406H956.767C957.169 336.406 957.496 336.07 957.496 335.656C957.496 335.242 957.169 334.906 956.767 334.906H946.559C943.744 334.906 941.454 332.551 941.454 329.656V315.406H973.538V322.156C973.538 322.57 973.864 322.906 974.267 322.906C974.669 322.906 974.996 322.57 974.996 322.156V310.156C974.996 306.435 972.052 303.406 968.434 303.406ZM941.454 313.906V310.156C941.454 307.261 943.744 304.906 946.559 304.906H968.434C971.248 304.906 973.538 307.261 973.538 310.156V313.906H941.454ZM947.288 309.406C947.288 310.234 946.634 310.906 945.829 310.906C945.024 310.906 944.371 310.234 944.371 309.406C944.371 308.578 945.024 307.906 945.829 307.906C946.634 307.906 947.288 308.578 947.288 309.406ZM951.663 309.406C951.663 310.234 951.009 310.906 950.204 310.906C949.399 310.906 948.746 310.234 948.746 309.406C948.746 308.578 949.399 307.906 950.204 307.906C951.009 307.906 951.663 308.578 951.663 309.406ZM956.038 309.406C956.038 310.234 955.384 310.906 954.579 310.906C953.774 310.906 953.121 310.234 953.121 309.406C953.121 308.578 953.774 307.906 954.579 307.906C955.384 307.906 956.038 308.578 956.038 309.406ZM970.432 332.151C971.461 330.858 972.079 329.205 972.079 327.406C972.079 323.271 968.808 319.906 964.788 319.906C960.767 319.906 957.496 323.271 957.496 327.406C957.496 331.542 960.767 334.906 964.788 334.906C966.536 334.906 968.142 334.27 969.4 333.211L973.752 337.687C973.895 337.834 974.082 337.906 974.268 337.906C974.455 337.906 974.642 337.833 974.785 337.687C975.069 337.395 975.069 336.919 974.785 336.627L970.432 332.151ZM964.788 333.406C961.571 333.406 958.954 330.715 958.954 327.406C958.954 324.097 961.571 321.406 964.788 321.406C968.005 321.406 970.621 324.097 970.621 327.406C970.621 330.715 968.005 333.406 964.788 333.406Z"
       fill="#132434"
       id="path48" />
  </g>
  <path
     d="M411.668 247.055L371.412 246.028L372.393 245.677L330.192 279.212L329.966 279.391L329.699 279.387L274.993 278.609L329.699 277.83L329.204 278.007L370.43 243.285L370.835 242.944L371.412 242.935L411.668 241.907V247.055Z"
     fill="#2F6A9F"
     id="path109" />
  <path
     d="M306.81 271.297H297.174C296.234 266.813 294.465 262.545 291.956 258.712L298.773 251.895C299.061 251.607 299.29 251.264 299.446 250.887C299.602 250.511 299.683 250.107 299.683 249.699C299.683 249.291 299.602 248.887 299.446 248.51C299.29 248.134 299.061 247.791 298.773 247.503L292.405 241.134C291.823 240.552 291.033 240.225 290.209 240.225C289.386 240.225 288.596 240.552 288.013 241.134L281.197 247.951C277.363 245.443 273.095 243.674 268.612 242.735V233.098C268.612 232.274 268.284 231.484 267.702 230.902C267.12 230.319 266.33 229.992 265.506 229.992H256.5C255.676 229.992 254.886 230.319 254.304 230.902C253.721 231.484 253.394 232.274 253.394 233.098V242.735C248.911 243.674 244.642 245.444 240.809 247.952L233.993 241.135C233.41 240.553 232.62 240.226 231.797 240.226C230.973 240.226 230.183 240.553 229.601 241.135L223.232 247.503C222.944 247.791 222.715 248.133 222.559 248.51C222.403 248.887 222.322 249.291 222.322 249.699C222.322 250.106 222.403 250.51 222.559 250.887C222.715 251.264 222.944 251.606 223.232 251.895L230.049 258.711C227.541 262.545 225.771 266.813 224.832 271.297H215.195C214.372 271.297 213.582 271.624 212.999 272.206C212.417 272.789 212.09 273.578 212.09 274.402V283.408C212.09 284.232 212.417 285.022 212.999 285.604C213.582 286.187 214.372 286.514 215.195 286.514H224.832C225.772 290.997 227.541 295.266 230.05 299.099L223.233 305.915C222.944 306.204 222.716 306.546 222.56 306.923C222.404 307.3 222.323 307.704 222.323 308.112C222.323 308.519 222.404 308.923 222.56 309.3C222.716 309.677 222.944 310.019 223.233 310.308L229.601 316.676C230.184 317.258 230.974 317.585 231.797 317.585C232.621 317.585 233.411 317.258 233.993 316.676L240.81 309.859C244.643 312.367 248.911 314.137 253.394 315.076V324.713C253.394 325.12 253.475 325.524 253.631 325.901C253.787 326.278 254.015 326.62 254.304 326.909C254.592 327.197 254.935 327.426 255.311 327.582C255.688 327.738 256.092 327.818 256.5 327.818H265.506C265.914 327.818 266.318 327.738 266.694 327.582C267.071 327.426 267.414 327.197 267.702 326.909C267.99 326.62 268.219 326.278 268.375 325.901C268.531 325.524 268.612 325.12 268.612 324.713V315.076C273.095 314.136 277.363 312.367 281.196 309.858L288.013 316.675C288.596 317.258 289.385 317.585 290.209 317.585C291.033 317.585 291.823 317.258 292.405 316.675L298.774 310.307C299.062 310.019 299.291 309.676 299.447 309.299C299.603 308.923 299.683 308.519 299.683 308.111C299.683 307.703 299.603 307.299 299.447 306.922C299.291 306.546 299.062 306.203 298.774 305.915L291.957 299.098C294.465 295.265 296.234 290.997 297.174 286.514H306.81C307.218 286.514 307.622 286.434 307.999 286.278C308.376 286.121 308.718 285.893 309.006 285.604C309.295 285.316 309.523 284.974 309.68 284.597C309.836 284.22 309.916 283.816 309.916 283.408V274.402C309.916 273.994 309.836 273.59 309.68 273.214C309.523 272.837 309.295 272.495 309.006 272.206C308.718 271.918 308.376 271.689 307.999 271.533C307.622 271.377 307.218 271.297 306.81 271.297Z"
     fill="#1E3143"
     id="path110" />
  <path
     d="M265.499 328.906H256.493C255.381 328.905 254.316 328.463 253.53 327.677C252.744 326.891 252.302 325.825 252.3 324.714V315.95C248.287 315.013 244.454 313.424 240.954 311.246L234.754 317.446C233.967 318.231 232.901 318.672 231.789 318.672C230.678 318.672 229.611 318.231 228.825 317.446L222.457 311.077C221.67 310.291 221.229 309.225 221.229 308.113C221.229 307.001 221.67 305.935 222.457 305.148L228.657 298.948C226.479 295.449 224.889 291.616 223.953 287.602H215.189C214.077 287.601 213.011 287.159 212.225 286.373C211.439 285.587 210.997 284.521 210.996 283.409V274.403C210.997 273.292 211.439 272.226 212.225 271.44C213.011 270.654 214.077 270.212 215.189 270.211H223.953C224.889 266.197 226.479 262.364 228.657 258.864L222.457 252.664C221.671 251.877 221.231 250.811 221.231 249.699C221.231 248.588 221.671 247.522 222.457 246.735L228.825 240.367C229.612 239.582 230.678 239.141 231.789 239.141C232.901 239.141 233.967 239.582 234.754 240.367L240.954 246.567C244.454 244.389 248.287 242.8 252.3 241.863V233.099C252.302 231.987 252.744 230.922 253.53 230.136C254.316 229.35 255.381 228.907 256.493 228.906H265.499C266.611 228.907 267.676 229.35 268.462 230.136C269.248 230.922 269.691 231.987 269.692 233.099V241.863C273.706 242.8 277.539 244.389 281.038 246.567L287.238 240.367C288.025 239.582 289.091 239.141 290.203 239.141C291.315 239.141 292.381 239.582 293.168 240.367L299.536 246.735C300.321 247.522 300.762 248.588 300.762 249.7C300.762 250.811 300.321 251.877 299.536 252.664L293.336 258.864C295.514 262.364 297.103 266.197 298.039 270.211H306.804C307.915 270.212 308.981 270.654 309.767 271.44C310.553 272.226 310.995 273.292 310.996 274.403V283.409C310.995 284.521 310.553 285.587 309.767 286.373C308.981 287.159 307.915 287.601 306.804 287.602H298.039C297.103 291.616 295.514 295.449 293.336 298.948L299.536 305.148C300.322 305.935 300.763 307.001 300.763 308.113C300.763 309.225 300.322 310.291 299.536 311.078L293.168 317.446C292.381 318.231 291.314 318.672 290.203 318.672C289.091 318.672 288.025 318.231 287.238 317.446L281.038 311.246C277.539 313.424 273.706 315.013 269.692 315.95V324.714C269.691 325.825 269.248 326.891 268.462 327.677C267.676 328.463 266.611 328.905 265.499 328.906ZM240.803 308.773C241.014 308.773 241.221 308.835 241.397 308.95C245.116 311.387 249.258 313.104 253.61 314.013C253.854 314.064 254.074 314.198 254.231 314.392C254.388 314.585 254.474 314.827 254.474 315.077V324.714C254.475 325.249 254.688 325.762 255.066 326.14C255.445 326.519 255.958 326.732 256.493 326.732H265.499C266.034 326.732 266.547 326.519 266.926 326.14C267.304 325.762 267.517 325.249 267.518 324.714V315.077C267.518 314.827 267.604 314.585 267.761 314.392C267.919 314.198 268.138 314.064 268.382 314.013C272.734 313.104 276.876 311.387 280.595 308.95C280.804 308.814 281.053 308.753 281.302 308.779C281.55 308.805 281.782 308.915 281.958 309.091L288.775 315.908C289.154 316.286 289.667 316.499 290.202 316.499C290.737 316.499 291.251 316.286 291.629 315.908L297.998 309.54C298.185 309.353 298.334 309.13 298.435 308.885C298.537 308.64 298.589 308.378 298.589 308.113C298.589 307.847 298.537 307.585 298.435 307.34C298.334 307.095 298.185 306.873 297.998 306.685L291.181 299.868C291.005 299.692 290.894 299.46 290.868 299.212C290.843 298.963 290.903 298.714 291.04 298.505C293.476 294.787 295.194 290.644 296.103 286.292C296.154 286.048 296.287 285.829 296.481 285.671C296.675 285.514 296.917 285.428 297.167 285.428H306.804C307.339 285.427 307.852 285.214 308.23 284.836C308.609 284.458 308.822 283.945 308.822 283.409V274.403C308.822 273.868 308.609 273.355 308.23 272.976C307.852 272.598 307.339 272.385 306.804 272.385H297.167C296.917 272.384 296.675 272.299 296.481 272.141C296.288 271.984 296.154 271.765 296.103 271.52C295.194 267.169 293.477 263.026 291.04 259.307C290.903 259.099 290.843 258.849 290.869 258.601C290.894 258.352 291.005 258.121 291.181 257.944L297.998 251.127C298.376 250.749 298.588 250.235 298.588 249.7C298.588 249.165 298.376 248.651 297.998 248.273L291.63 241.904C291.251 241.526 290.738 241.314 290.203 241.314C289.667 241.314 289.154 241.526 288.775 241.904L281.959 248.721C281.782 248.897 281.55 249.008 281.302 249.033C281.054 249.059 280.804 248.999 280.595 248.862C276.877 246.426 272.734 244.709 268.383 243.8C268.138 243.749 267.919 243.615 267.761 243.421C267.604 243.227 267.518 242.985 267.518 242.736V233.099C267.517 232.564 267.304 232.051 266.926 231.672C266.547 231.294 266.034 231.081 265.499 231.08H256.493C255.958 231.081 255.445 231.294 255.066 231.672C254.688 232.051 254.475 232.564 254.474 233.099V242.736C254.474 242.985 254.388 243.227 254.231 243.421C254.074 243.615 253.854 243.748 253.61 243.799C249.258 244.708 245.116 246.425 241.397 248.862C241.188 248.998 240.939 249.059 240.691 249.033C240.442 249.007 240.211 248.897 240.034 248.72L233.217 241.903C232.838 241.526 232.325 241.313 231.79 241.313C231.255 241.313 230.742 241.526 230.363 241.903L223.994 248.272C223.616 248.651 223.404 249.164 223.404 249.7C223.404 250.235 223.616 250.748 223.994 251.127L230.811 257.944C230.987 258.12 231.098 258.352 231.123 258.6C231.149 258.849 231.089 259.098 230.952 259.307C228.516 263.026 226.799 267.168 225.89 271.52C225.839 271.764 225.705 271.984 225.511 272.141C225.317 272.299 225.075 272.385 224.825 272.385H215.189C214.653 272.385 214.14 272.598 213.762 272.976C213.383 273.355 213.171 273.868 213.17 274.403V283.409C213.171 283.945 213.383 284.458 213.762 284.836C214.14 285.214 214.653 285.427 215.189 285.428H224.825C225.075 285.428 225.317 285.514 225.511 285.671C225.704 285.829 225.838 286.048 225.889 286.292C226.798 290.644 228.515 294.786 230.951 298.505C231.088 298.714 231.148 298.963 231.123 299.212C231.097 299.46 230.987 299.692 230.81 299.868L223.993 306.685C223.806 306.873 223.657 307.095 223.556 307.34C223.454 307.585 223.402 307.847 223.402 308.113C223.402 308.378 223.454 308.64 223.556 308.885C223.657 309.13 223.806 309.353 223.993 309.54L230.362 315.908C230.741 316.286 231.254 316.499 231.789 316.499C232.324 316.499 232.838 316.286 233.216 315.908L240.033 309.091C240.134 308.99 240.254 308.91 240.386 308.856C240.518 308.801 240.66 308.773 240.803 308.773Z"
     fill="#2F6A9F"
     id="path111" />
  <path
     d="M260.996 309.906C278.117 309.906 291.996 296.027 291.996 278.906C291.996 261.785 278.117 247.906 260.996 247.906C243.875 247.906 229.996 261.785 229.996 278.906C229.996 296.027 243.875 309.906 260.996 309.906Z"
     fill="white"
     id="path112"
     style="fill:url(#linearGradient157);fill-opacity:1" />
  <path
     d="M281.996 273.426V287.093C281.996 291.332 278.547 294.781 274.309 294.781H262.35V298.198H269.184C269.655 298.198 270.038 298.581 270.038 299.052C270.038 299.524 269.655 299.906 269.184 299.906H253.809C253.337 299.906 252.954 299.524 252.954 299.052C252.954 298.581 253.337 298.198 253.809 298.198H260.642V294.781H248.684C244.445 294.781 240.996 291.332 240.996 287.093V273.426C240.996 269.915 243.367 266.854 246.762 265.981C247.221 265.859 247.684 266.14 247.802 266.596C247.918 267.052 247.643 267.518 247.189 267.636C244.548 268.314 242.704 270.698 242.704 273.428V287.095C242.704 290.392 245.387 293.074 248.684 293.074H274.309C277.606 293.074 280.288 290.392 280.288 287.095V273.428C280.288 270.698 278.444 268.316 275.803 267.636C275.347 267.518 275.072 267.054 275.19 266.596C275.308 266.14 275.771 265.859 276.23 265.981C279.625 266.854 281.996 269.917 281.996 273.426ZM258.079 270.863C258.079 268.979 259.612 267.447 261.496 267.447C263.38 267.447 264.913 268.979 264.913 270.863C264.913 272.748 263.38 274.28 261.496 274.28C259.612 274.28 258.079 272.748 258.079 270.863ZM259.788 270.863C259.788 271.805 260.553 272.572 261.496 272.572C262.439 272.572 263.204 271.805 263.204 270.863C263.204 269.922 262.439 269.155 261.496 269.155C260.553 269.155 259.788 269.922 259.788 270.863ZM252.09 273.388L253.194 272.744C253.033 272.088 252.954 271.468 252.954 270.865C252.954 270.262 253.033 269.642 253.194 268.984L252.09 268.342C250.87 267.628 250.457 266.056 251.169 264.836C251.882 263.616 253.453 263.201 254.675 263.914L255.77 264.554C256.687 263.719 257.762 263.099 258.935 262.73V261.469C258.935 260.056 260.085 258.906 261.498 258.906C262.911 258.906 264.06 260.056 264.06 261.469V262.73C265.234 263.099 266.308 263.719 267.226 264.554L268.323 263.915C268.914 263.568 269.602 263.478 270.265 263.649C270.928 263.823 271.481 264.245 271.826 264.836C272.539 266.056 272.125 267.629 270.906 268.342L269.802 268.986C269.963 269.645 270.041 270.265 270.041 270.867C270.041 271.468 269.963 272.088 269.802 272.746L270.906 273.39C271.498 273.735 271.919 274.289 272.091 274.952C272.267 275.613 272.171 276.303 271.826 276.894C271.481 277.485 270.928 277.907 270.265 278.081C269.597 278.256 268.912 278.158 268.323 277.815L267.226 277.176C266.31 278.011 265.234 278.631 264.06 279.001V280.261C264.06 281.674 262.911 282.824 261.498 282.824C260.085 282.824 258.935 281.674 258.935 280.261V279.001C257.762 278.631 256.689 278.011 255.77 277.176L254.675 277.815C253.453 278.527 251.882 278.114 251.169 276.894C250.457 275.674 250.87 274.103 252.09 273.39V273.388ZM252.644 276.031C252.881 276.438 253.405 276.575 253.814 276.337L255.473 275.37C255.606 275.292 255.754 275.254 255.903 275.254C256.134 275.254 256.361 275.346 256.525 275.524C257.464 276.525 258.659 277.214 259.977 277.514C260.367 277.603 260.642 277.948 260.642 278.346V280.261C260.642 280.733 261.026 281.116 261.496 281.116C261.966 281.116 262.35 280.733 262.35 280.261V278.346C262.35 277.948 262.625 277.601 263.015 277.514C264.335 277.214 265.531 276.525 266.467 275.524C266.742 275.232 267.176 275.17 267.521 275.37L269.182 276.339C269.378 276.453 269.614 276.484 269.829 276.428C270.05 276.37 270.234 276.229 270.35 276.033C270.465 275.835 270.497 275.606 270.439 275.386C270.381 275.165 270.241 274.981 270.045 274.866L268.372 273.889C268.029 273.687 267.868 273.277 267.986 272.896C268.222 272.143 268.331 271.497 268.331 270.867C268.331 270.236 268.222 269.589 267.986 268.835C267.868 268.456 268.027 268.045 268.372 267.843L270.045 266.867C270.451 266.63 270.588 266.105 270.352 265.697C270.238 265.501 270.051 265.361 269.831 265.303C269.616 265.248 269.382 265.275 269.184 265.391L267.523 266.36C267.183 266.56 266.744 266.5 266.469 266.206C265.533 265.205 264.339 264.518 263.017 264.216C262.627 264.127 262.352 263.782 262.352 263.384V261.471C262.352 260.999 261.968 260.616 261.498 260.616C261.028 260.616 260.644 260.999 260.644 261.471V263.384C260.644 263.782 260.369 264.129 259.979 264.216C258.66 264.517 257.464 265.205 256.527 266.206C256.255 266.498 255.814 266.56 255.474 266.36L253.815 265.391C253.409 265.156 252.883 265.291 252.645 265.699C252.408 266.107 252.546 266.63 252.954 266.869L254.627 267.845C254.97 268.046 255.131 268.458 255.011 268.839C254.776 269.589 254.666 270.235 254.666 270.868C254.666 271.502 254.776 272.146 255.011 272.898C255.131 273.279 254.974 273.691 254.627 273.892L252.954 274.87C252.548 275.107 252.411 275.632 252.647 276.038L252.644 276.031Z"
     fill="#132434"
     id="path113" />
  <defs
     id="defs156">
    <linearGradient
       id="linearGradient164"
       inkscape:collect="always">
      <stop
         style="stop-color:#0a72b2;stop-opacity:1;"
         offset="0"
         id="stop164" />
      <stop
         style="stop-color:#e44444;stop-opacity:1;"
         offset="1"
         id="stop165" />
    </linearGradient>
    <linearGradient
       id="linearGradient162"
       inkscape:collect="always">
      <stop
         style="stop-color:#0a72b2;stop-opacity:1;"
         offset="0"
         id="stop162" />
      <stop
         style="stop-color:#e44444;stop-opacity:1;"
         offset="1"
         id="stop163" />
    </linearGradient>
    <linearGradient
       id="linearGradient160"
       inkscape:collect="always">
      <stop
         style="stop-color:#0a72b2;stop-opacity:1;"
         offset="0"
         id="stop160" />
      <stop
         style="stop-color:#e44444;stop-opacity:1;"
         offset="1"
         id="stop161" />
    </linearGradient>
    <linearGradient
       id="linearGradient158"
       inkscape:collect="always">
      <stop
         style="stop-color:#0a72b2;stop-opacity:1;"
         offset="0"
         id="stop158" />
      <stop
         style="stop-color:#e44444;stop-opacity:1;"
         offset="1"
         id="stop159" />
    </linearGradient>
    <linearGradient
       id="linearGradient156"
       inkscape:collect="always">
      <stop
         style="stop-color:#0a72b2;stop-opacity:1;"
         offset="0"
         id="stop156" />
      <stop
         style="stop-color:#e44444;stop-opacity:1;"
         offset="1"
         id="stop157" />
    </linearGradient>
    <linearGradient
       id="paint0_linear_1126_16159"
       x1="519.16"
       y1="263.307"
       x2="681.601"
       y2="69.7419"
       gradientUnits="userSpaceOnUse">
      <stop
         stop-color="#105783"
         id="stop143" />
      <stop
         offset="1"
         stop-color="#A72929"
         id="stop144" />
    </linearGradient>
    <linearGradient
       id="paint1_linear_1126_16159"
       x1="482.55469"
       y1="298.01694"
       x2="740.53632"
       y2="-34.570965"
       gradientUnits="userSpaceOnUse">
      <stop
         stop-color="#0A72B2"
         id="stop145" />
      <stop
         offset="1"
         stop-color="#E44444"
         id="stop146" />
    </linearGradient>
    <linearGradient
       id="paint2_linear_1126_16159"
       x1="551.743"
       y1="243.799"
       x2="697.789"
       y2="67.3817"
       gradientUnits="userSpaceOnUse">
      <stop
         stop-color="#1270AD"
         id="stop147" />
      <stop
         offset="0.67"
         stop-color="#852D35"
         id="stop148" />
      <stop
         offset="1"
         stop-color="#2E547C"
         id="stop149" />
    </linearGradient>
    <linearGradient
       id="paint3_linear_1126_16159"
       x1="772.989"
       y1="373.415"
       x2="943.64"
       y2="114.699"
       gradientUnits="userSpaceOnUse">
      <stop
         stop-color="#0A72B2"
         id="stop150" />
      <stop
         offset="1"
         stop-color="#E44444"
         id="stop151" />
    </linearGradient>
    <linearGradient
       id="paint4_linear_1126_16159"
       x1="482.494"
       y1="373.393"
       x2="647.87"
       y2="189.329"
       gradientUnits="userSpaceOnUse">
      <stop
         stop-color="#0A72B2"
         id="stop152" />
      <stop
         offset="1"
         stop-color="#E44444"
         id="stop153" />
    </linearGradient>
    <clipPath
       id="clip0_1126_16159">
      <rect
         width="39"
         height="39"
         fill="white"
         transform="translate(238.996 65.9062)"
         id="rect153" />
    </clipPath>
    <clipPath
       id="clip1_1126_16159">
      <rect
         width="39"
         height="38"
         fill="white"
         transform="matrix(-1 0 0 1 986.145 39.9062)"
         id="rect154" />
    </clipPath>
    <clipPath
       id="clip2_1126_16159">
      <rect
         width="39"
         height="39"
         fill="white"
         transform="translate(956.996 163.906)"
         id="rect155" />
    </clipPath>
    <clipPath
       id="clip3_1126_16159">
      <rect
         width="35"
         height="36"
         fill="white"
         transform="translate(939.996 301.906)"
         id="rect156" />
    </clipPath>
    <linearGradient
       inkscape:collect="always"
       xlink:href="#linearGradient156"
       id="linearGradient157"
       x1="241.99588"
       y1="303.40082"
       x2="279.99612"
       y2="254.41119"
       gradientUnits="userSpaceOnUse" />
    <linearGradient
       inkscape:collect="always"
       xlink:href="#linearGradient158"
       id="linearGradient159"
       x1="239.99588"
       y1="109.4009"
       x2="277.99612"
       y2="60.411293"
       gradientUnits="userSpaceOnUse" />
    <linearGradient
       inkscape:collect="always"
       xlink:href="#linearGradient160"
       id="linearGradient161"
       x1="948.1449"
       y1="83.401009"
       x2="986.14514"
       y2="34.411396"
       gradientUnits="userSpaceOnUse" />
    <linearGradient
       inkscape:collect="always"
       xlink:href="#linearGradient162"
       id="linearGradient163"
       x1="956.99664"
       y1="207.4024"
       x2="994.99933"
       y2="158.40961"
       gradientUnits="userSpaceOnUse" />
    <linearGradient
       inkscape:collect="always"
       xlink:href="#linearGradient164"
       id="linearGradient165"
       x1="937.99585"
       y1="344.40082"
       x2="975.99609"
       y2="295.41119"
       gradientUnits="userSpaceOnUse" />
  </defs>
</svg>
